<?xml version="1.0" encoding="UTF-8"?>
<svg xmlns="http://www.w3.org/2000/svg" width="800.000" height="600.000" viewBox="0.0 0.0 800.000 600.000" version="1.1">
  <title>Produce by Acme CAD Converter</title>
  <desc>Produce by Acme CAD Converter</desc>
<path d="M549.15 300L797.74 300 549.15 51.41 549.15 300Z"
fill-rule="evenodd" fill="RGB(255,191,0)"/>
<path d="M797.74 300L797.74 51.41 549.15 51.41 797.74 300Z"
fill-rule="evenodd" fill="RGB(255,191,0)"/>
<path d="M27.12 548.59L275.71 548.59 27.12 300 27.12 548.59Z"
fill-rule="evenodd" fill="RGB(255,191,0)"/>
<path d="M275.71 548.59L275.71 300 27.12 300 275.71 548.59Z"
fill-rule="evenodd" fill="RGB(255,191,0)"/>
<path d="M2.26 275.14L250.85 275.14 2.26 26.56 2.26 275.14Z"
fill-rule="evenodd" fill="RGB(255,191,0)"/>
<path d="M250.85 275.14L250.85 26.56 2.26 26.56 250.85 275.14Z"
fill-rule="evenodd" fill="RGB(255,191,0)"/>
<path d="M275.71 300L524.29 300 275.71 51.41 275.71 300Z"
fill-rule="evenodd" fill="RGB(255,191,0)"/>
<path d="M524.29 300L524.29 51.41 275.71 51.41 524.29 300Z"
fill-rule="evenodd" fill="RGB(255,191,0)"/>
<path d="M275.71 548.59L524.29 548.59 275.71 300 275.71 548.59Z"
fill-rule="evenodd" fill="RGB(255,191,0)"/>
<path d="M524.29 548.59L524.29 300 275.71 300 524.29 548.59Z"
fill-rule="evenodd" fill="RGB(255,191,0)"/>
<path d="M549.15 573.44L797.74 573.44 549.15 324.86 549.15 573.44Z"
fill-rule="evenodd" fill="RGB(255,191,0)"/>
<path d="M797.74 573.44L797.74 324.86 549.15 324.86 797.74 573.44Z"
fill-rule="evenodd" fill="RGB(255,191,0)"/>
<path d="M549.15 300L797.74 300 549.15 51.41 549.15 300Z"
fill-rule="evenodd" fill="RGB(255,191,0)"/>
<path d="M797.74 300L797.74 51.41 549.15 51.41 797.74 300Z"
fill-rule="evenodd" fill="RGB(255,191,0)"/>
<path d="M27.12 548.59L275.71 548.59 27.12 300 27.12 548.59Z"
fill-rule="evenodd" fill="RGB(255,191,0)"/>
<path d="M275.71 548.59L275.71 300 27.12 300 275.71 548.59Z"
fill-rule="evenodd" fill="RGB(255,191,0)"/>
<path d="M2.26 275.14L250.85 275.14 2.26 26.56 2.26 275.14Z"
fill-rule="evenodd" fill="RGB(255,191,0)"/>
<path d="M250.85 275.14L250.85 26.56 2.26 26.56 250.85 275.14Z"
fill-rule="evenodd" fill="RGB(255,191,0)"/>
<path d="M275.71 300L524.29 300 275.71 51.41 275.71 300Z"
fill-rule="evenodd" fill="RGB(255,191,0)"/>
<path d="M524.29 300L524.29 51.41 275.71 51.41 524.29 300Z"
fill-rule="evenodd" fill="RGB(255,191,0)"/>
<path d="M275.71 548.59L524.29 548.59 275.71 300 275.71 548.59Z"
fill-rule="evenodd" fill="RGB(255,191,0)"/>
<path d="M524.29 548.59L524.29 300 275.71 300 524.29 548.59Z"
fill-rule="evenodd" fill="RGB(255,191,0)"/>
<path d="M549.15 573.44L797.74 573.44 549.15 324.86 549.15 573.44Z"
fill-rule="evenodd" fill="RGB(255,191,0)"/>
<path d="M797.74 573.44L797.74 324.86 549.15 324.86 797.74 573.44Z"
fill-rule="evenodd" fill="RGB(255,191,0)"/>
<path d="M549.15 573.44L797.74 573.44 549.15 324.86 549.15 573.44Z"
fill-rule="evenodd" fill="RGB(255,191,0)"/>
<path d="M797.74 573.44L797.74 324.86 549.15 324.86 797.74 573.44Z"
fill-rule="evenodd" fill="RGB(255,191,0)"/>
<path d="M275.71 300L524.29 300 275.71 51.41 275.71 300Z"
fill-rule="evenodd" fill="RGB(255,191,0)"/>
<path d="M524.29 300L524.29 51.41 275.71 51.41 524.29 300Z"
fill-rule="evenodd" fill="RGB(255,191,0)"/>
<path d="M275.71 548.59L524.29 548.59 275.71 300 275.71 548.59Z"
fill-rule="evenodd" fill="RGB(255,191,0)"/>
<path d="M524.29 548.59L524.29 300 275.71 300 524.29 548.59Z"
fill-rule="evenodd" fill="RGB(255,191,0)"/>
<path d="M27.12 548.59L275.71 548.59 27.12 300 27.12 548.59Z"
fill-rule="evenodd" fill="RGB(255,191,0)"/>
<path d="M275.71 548.59L275.71 300 27.12 300 275.71 548.59Z"
fill-rule="evenodd" fill="RGB(255,191,0)"/>
<path d="M2.26 275.14L250.85 275.14 2.26 26.56 2.26 275.14Z"
fill-rule="evenodd" fill="RGB(255,191,0)"/>
<path d="M250.85 275.14L250.85 26.56 2.26 26.56 250.85 275.14Z"
fill-rule="evenodd" fill="RGB(255,191,0)"/>
</svg>
