<?xml version="1.0" encoding="UTF-8"?>
<svg xmlns="http://www.w3.org/2000/svg" width="800.000" height="600.000" viewBox="0.0 0.0 800.000 600.000" version="1.1">
  <title>Produce by Acme CAD Converter</title>
  <desc>Produce by Acme CAD Converter</desc>
<path d="M102.03 310.02L102.03 289.59 101.84 300.47 102.03 310.02Z"
fill-rule="evenodd" fill="RGB(255,191,0)"/>
<path d="M102.03 310.02L102.05 311.36 102.03 289.59 102.03 310.02Z"
fill-rule="evenodd" fill="RGB(255,191,0)"/>
<path d="M102.05 311.36L102.05 289.11 102.03 289.59 102.05 311.36Z"
fill-rule="evenodd" fill="RGB(255,191,0)"/>
<path d="M102.05 311.36L102.61 321.3 102.05 289.11 102.05 311.36Z"
fill-rule="evenodd" fill="RGB(255,191,0)"/>
<path d="M102.61 321.3L102.61 278.73 102.05 289.11 102.61 321.3Z"
fill-rule="evenodd" fill="RGB(255,191,0)"/>
<path d="M102.61 321.3L102.66 322.22 102.61 278.73 102.61 321.3Z"
fill-rule="evenodd" fill="RGB(255,191,0)"/>
<path d="M102.66 322.22L102.66 278.15 102.61 278.73 102.66 322.22Z"
fill-rule="evenodd" fill="RGB(255,191,0)"/>
<path d="M102.66 322.22L103.59 332.22 102.66 278.15 102.66 322.22Z"
fill-rule="evenodd" fill="RGB(255,191,0)"/>
<path d="M103.59 332.22L103.59 267.89 102.66 278.15 103.59 332.22Z"
fill-rule="evenodd" fill="RGB(255,191,0)"/>
<path d="M103.59 332.22L103.66 333.06 103.59 267.89 103.59 332.22Z"
fill-rule="evenodd" fill="RGB(255,191,0)"/>
<path d="M103.66 333.06L103.66 267.28 103.59 267.89 103.66 333.06Z"
fill-rule="evenodd" fill="RGB(255,191,0)"/>
<path d="M103.66 333.06L104.96 343.06 103.66 267.28 103.66 333.06Z"
fill-rule="evenodd" fill="RGB(255,191,0)"/>
<path d="M104.96 343.06L104.96 257.09 103.66 267.28 104.96 343.06Z"
fill-rule="evenodd" fill="RGB(255,191,0)"/>
<path d="M104.96 343.06L105.06 343.85 104.96 257.09 104.96 343.06Z"
fill-rule="evenodd" fill="RGB(255,191,0)"/>
<path d="M105.06 343.85L105.06 256.46 104.96 257.09 105.06 343.85Z"
fill-rule="evenodd" fill="RGB(255,191,0)"/>
<path d="M105.06 343.85L106.72 353.82 105.06 256.46 105.06 343.85Z"
fill-rule="evenodd" fill="RGB(255,191,0)"/>
<path d="M106.72 353.82L106.72 246.35 105.06 256.46 106.72 353.82Z"
fill-rule="evenodd" fill="RGB(255,191,0)"/>
<path d="M106.72 353.82L106.85 354.59 106.72 246.35 106.72 353.82Z"
fill-rule="evenodd" fill="RGB(255,191,0)"/>
<path d="M106.85 354.59L106.85 245.71 106.72 246.35 106.85 354.59Z"
fill-rule="evenodd" fill="RGB(255,191,0)"/>
<path d="M106.85 354.59L108.88 364.5 106.85 245.71 106.85 354.59Z"
fill-rule="evenodd" fill="RGB(255,191,0)"/>
<path d="M108.88 364.5L108.88 235.68 106.85 245.71 108.88 364.5Z"
fill-rule="evenodd" fill="RGB(255,191,0)"/>
<path d="M108.88 364.5L109.03 365.25 108.88 235.68 108.88 364.5Z"
fill-rule="evenodd" fill="RGB(255,191,0)"/>
<path d="M109.03 365.25L109.03 235.04 108.88 235.68 109.03 365.25Z"
fill-rule="evenodd" fill="RGB(255,191,0)"/>
<path d="M109.03 365.25L111.42 375.09 109.03 235.04 109.03 365.25Z"
fill-rule="evenodd" fill="RGB(255,191,0)"/>
<path d="M111.42 375.09L111.42 225.1 109.03 235.04 111.42 375.09Z"
fill-rule="evenodd" fill="RGB(255,191,0)"/>
<path d="M111.42 375.09L111.6 375.83 111.42 225.1 111.42 375.09Z"
fill-rule="evenodd" fill="RGB(255,191,0)"/>
<path d="M111.6 375.83L111.6 224.46 111.42 225.1 111.6 375.83Z"
fill-rule="evenodd" fill="RGB(255,191,0)"/>
<path d="M111.6 375.83L114.35 385.58 111.6 224.46 111.6 375.83Z"
fill-rule="evenodd" fill="RGB(255,191,0)"/>
<path d="M114.35 385.58L114.35 214.62 111.6 224.46 114.35 385.58Z"
fill-rule="evenodd" fill="RGB(255,191,0)"/>
<path d="M114.35 385.58L114.55 386.3 114.35 214.62 114.35 385.58Z"
fill-rule="evenodd" fill="RGB(255,191,0)"/>
<path d="M114.55 386.3L114.55 213.98 114.35 214.62 114.55 386.3Z"
fill-rule="evenodd" fill="RGB(255,191,0)"/>
<path d="M114.55 386.3L117.66 395.95 114.55 213.98 114.55 386.3Z"
fill-rule="evenodd" fill="RGB(255,191,0)"/>
<path d="M117.66 395.95L117.66 204.25 114.55 213.98 117.66 395.95Z"
fill-rule="evenodd" fill="RGB(255,191,0)"/>
<path d="M117.66 395.95L117.89 396.66 117.66 204.25 117.66 395.95Z"
fill-rule="evenodd" fill="RGB(255,191,0)"/>
<path d="M117.89 396.66L117.89 203.61 117.66 204.25 117.89 396.66Z"
fill-rule="evenodd" fill="RGB(255,191,0)"/>
<path d="M117.89 396.66L121.34 406.19 117.89 203.61 117.89 396.66Z"
fill-rule="evenodd" fill="RGB(255,191,0)"/>
<path d="M121.34 406.19L121.34 194.01 117.89 203.61 121.34 406.19Z"
fill-rule="evenodd" fill="RGB(255,191,0)"/>
<path d="M121.34 406.19L121.59 406.89 121.34 194.01 121.34 406.19Z"
fill-rule="evenodd" fill="RGB(255,191,0)"/>
<path d="M121.59 406.89L121.59 193.38 121.34 194.01 121.59 406.89Z"
fill-rule="evenodd" fill="RGB(255,191,0)"/>
<path d="M121.59 406.89L125.4 416.3 121.59 193.38 121.59 406.89Z"
fill-rule="evenodd" fill="RGB(255,191,0)"/>
<path d="M125.4 416.3L125.4 183.91 121.59 193.38 125.4 416.3Z"
fill-rule="evenodd" fill="RGB(255,191,0)"/>
<path d="M125.4 416.3L125.67 416.98 125.4 183.91 125.4 416.3Z"
fill-rule="evenodd" fill="RGB(255,191,0)"/>
<path d="M125.67 416.98L125.67 183.29 125.4 183.91 125.67 416.98Z"
fill-rule="evenodd" fill="RGB(255,191,0)"/>
<path d="M125.67 416.98L129.82 426.25 125.67 183.29 125.67 416.98Z"
fill-rule="evenodd" fill="RGB(255,191,0)"/>
<path d="M129.82 426.25L129.82 173.97 125.67 183.29 129.82 426.25Z"
fill-rule="evenodd" fill="RGB(255,191,0)"/>
<path d="M129.82 426.25L130.12 426.92 129.82 173.97 129.82 426.25Z"
fill-rule="evenodd" fill="RGB(255,191,0)"/>
<path d="M130.12 426.92L130.12 173.35 129.82 173.97 130.12 426.92Z"
fill-rule="evenodd" fill="RGB(255,191,0)"/>
<path d="M130.12 426.92L134.6 436.02 130.12 173.35 130.12 426.92Z"
fill-rule="evenodd" fill="RGB(255,191,0)"/>
<path d="M134.6 436.02L134.6 164.19 130.12 173.35 134.6 436.02Z"
fill-rule="evenodd" fill="RGB(255,191,0)"/>
<path d="M134.6 436.02L134.92 436.68 134.6 164.19 134.6 436.02Z"
fill-rule="evenodd" fill="RGB(255,191,0)"/>
<path d="M134.92 436.68L134.92 163.58 134.6 164.19 134.92 436.68Z"
fill-rule="evenodd" fill="RGB(255,191,0)"/>
<path d="M134.92 436.68L139.73 445.62 134.92 163.58 134.92 436.68Z"
fill-rule="evenodd" fill="RGB(255,191,0)"/>
<path d="M139.73 445.62L139.73 154.59 134.92 163.58 139.73 445.62Z"
fill-rule="evenodd" fill="RGB(255,191,0)"/>
<path d="M139.73 445.62L140.08 446.27 139.73 346.27 139.73 445.62Z"
fill-rule="evenodd" fill="RGB(255,191,0)"/>
<path d="M140.08 446.27L140.08 346.62 139.73 346.27 140.08 446.27Z"
fill-rule="evenodd" fill="RGB(255,191,0)"/>
<path d="M140.08 446.27L145.58 455.66 140.08 346.62 140.08 446.27Z"
fill-rule="evenodd" fill="RGB(255,191,0)"/>
<path d="M145.58 455.66L145.58 352.12 140.08 346.62 145.58 455.66Z"
fill-rule="evenodd" fill="RGB(255,191,0)"/>
<path d="M145.58 455.66L151.42 464.84 145.58 352.12 145.58 455.66Z"
fill-rule="evenodd" fill="RGB(255,191,0)"/>
<path d="M151.42 464.84L151.42 357.96 145.58 352.12 151.42 464.84Z"
fill-rule="evenodd" fill="RGB(255,191,0)"/>
<path d="M151.42 464.84L157.59 473.81 151.42 357.96 151.42 464.84Z"
fill-rule="evenodd" fill="RGB(255,191,0)"/>
<path d="M157.59 473.81L157.59 364.13 151.42 357.96 157.59 473.81Z"
fill-rule="evenodd" fill="RGB(255,191,0)"/>
<path d="M157.59 473.81L164.08 482.54 157.59 364.13 157.59 473.81Z"
fill-rule="evenodd" fill="RGB(255,191,0)"/>
<path d="M164.08 482.54L164.08 370.63 157.59 364.13 164.08 482.54Z"
fill-rule="evenodd" fill="RGB(255,191,0)"/>
<path d="M164.08 482.54L170.89 491.03 164.08 370.63 164.08 482.54Z"
fill-rule="evenodd" fill="RGB(255,191,0)"/>
<path d="M170.89 491.03L170.89 377.43 164.08 370.63 170.89 491.03Z"
fill-rule="evenodd" fill="RGB(255,191,0)"/>
<path d="M170.89 491.03L178.01 499.27 170.89 377.43 170.89 491.03Z"
fill-rule="evenodd" fill="RGB(255,191,0)"/>
<path d="M178.01 499.27L178.01 384.55 170.89 377.43 178.01 499.27Z"
fill-rule="evenodd" fill="RGB(255,191,0)"/>
<path d="M178.01 499.27L180.26 501.69 178.01 384.55 178.01 499.27Z"
fill-rule="evenodd" fill="RGB(255,191,0)"/>
<path d="M180.26 501.69L180.26 386.8 178.01 384.55 180.26 501.69Z"
fill-rule="evenodd" fill="RGB(255,191,0)"/>
<path d="M180.26 501.69L185.42 507.24 180.26 386.8 180.26 501.69Z"
fill-rule="evenodd" fill="RGB(255,191,0)"/>
<path d="M185.42 507.24L185.42 386.8 180.26 386.8 185.42 507.24Z"
fill-rule="evenodd" fill="RGB(255,191,0)"/>
<path d="M185.42 507.24L193.11 514.93 185.42 386.8 185.42 507.24Z"
fill-rule="evenodd" fill="RGB(255,191,0)"/>
<path d="M193.11 514.93L193.11 386.8 185.42 386.8 193.11 514.93Z"
fill-rule="evenodd" fill="RGB(255,191,0)"/>
<path d="M193.11 514.93L201.08 522.34 193.11 386.8 193.11 514.93Z"
fill-rule="evenodd" fill="RGB(255,191,0)"/>
<path d="M201.08 522.34L201.08 386.8 193.11 386.8 201.08 522.34Z"
fill-rule="evenodd" fill="RGB(255,191,0)"/>
<path d="M201.08 522.34L209.32 529.46 201.08 386.8 201.08 522.34Z"
fill-rule="evenodd" fill="RGB(255,191,0)"/>
<path d="M209.32 529.46L209.32 386.8 201.08 386.8 209.32 529.46Z"
fill-rule="evenodd" fill="RGB(255,191,0)"/>
<path d="M209.32 529.46L217.81 536.27 209.32 386.8 209.32 529.46Z"
fill-rule="evenodd" fill="RGB(255,191,0)"/>
<path d="M217.81 536.27L217.81 386.8 209.32 386.8 217.81 536.27Z"
fill-rule="evenodd" fill="RGB(255,191,0)"/>
<path d="M217.81 536.27L219.65 537.64 217.81 386.8 217.81 536.27Z"
fill-rule="evenodd" fill="RGB(255,191,0)"/>
<path d="M219.65 537.64L219.65 386.8 217.81 386.8 219.65 537.64Z"
fill-rule="evenodd" fill="RGB(255,191,0)"/>
<path d="M219.65 537.64L226.54 542.76 219.65 386.8 219.65 537.64Z"
fill-rule="evenodd" fill="RGB(255,191,0)"/>
<path d="M226.54 542.76L226.54 386.8 219.65 386.8 226.54 542.76Z"
fill-rule="evenodd" fill="RGB(255,191,0)"/>
<path d="M226.54 62.56L226.54 57.52 219.65 62.56 226.54 62.56Z"
fill-rule="evenodd" fill="RGB(255,191,0)"/>
<path d="M226.54 542.76L228.43 544.07 226.54 386.8 226.54 542.76Z"
fill-rule="evenodd" fill="RGB(255,191,0)"/>
<path d="M228.43 544.07L228.43 386.8 226.54 386.8 228.43 544.07Z"
fill-rule="evenodd" fill="RGB(255,191,0)"/>
<path d="M226.54 62.56L228.43 62.56 226.54 57.52 226.54 62.56Z"
fill-rule="evenodd" fill="RGB(255,191,0)"/>
<path d="M228.43 62.56L228.43 56.13 226.54 57.52 228.43 62.56Z"
fill-rule="evenodd" fill="RGB(255,191,0)"/>
<path d="M228.43 544.07L235.5 548.94 228.43 386.8 228.43 544.07Z"
fill-rule="evenodd" fill="RGB(255,191,0)"/>
<path d="M235.5 548.94L235.5 386.8 228.43 386.8 235.5 548.94Z"
fill-rule="evenodd" fill="RGB(255,191,0)"/>
<path d="M228.43 62.56L235.5 62.56 228.43 56.13 228.43 62.56Z"
fill-rule="evenodd" fill="RGB(255,191,0)"/>
<path d="M235.5 62.56L235.5 51.34 228.43 56.13 235.5 62.56Z"
fill-rule="evenodd" fill="RGB(255,191,0)"/>
<path d="M235.5 548.94L237.44 550.17 235.5 386.8 235.5 548.94Z"
fill-rule="evenodd" fill="RGB(255,191,0)"/>
<path d="M237.44 550.17L237.44 386.8 235.5 386.8 237.44 550.17Z"
fill-rule="evenodd" fill="RGB(255,191,0)"/>
<path d="M235.5 62.56L237.44 62.56 235.5 51.34 235.5 62.56Z"
fill-rule="evenodd" fill="RGB(255,191,0)"/>
<path d="M237.44 62.56L237.44 50.03 235.5 51.34 237.44 62.56Z"
fill-rule="evenodd" fill="RGB(255,191,0)"/>
<path d="M237.44 550.17L244.68 554.78 237.44 386.8 237.44 550.17Z"
fill-rule="evenodd" fill="RGB(255,191,0)"/>
<path d="M244.68 554.78L244.68 386.8 237.44 386.8 244.68 554.78Z"
fill-rule="evenodd" fill="RGB(255,191,0)"/>
<path d="M237.44 62.56L244.68 62.56 237.44 50.03 237.44 62.56Z"
fill-rule="evenodd" fill="RGB(255,191,0)"/>
<path d="M244.68 62.56L244.68 45.5 237.44 50.03 244.68 62.56Z"
fill-rule="evenodd" fill="RGB(255,191,0)"/>
<path d="M244.68 554.78L246.67 555.94 244.68 386.8 244.68 554.78Z"
fill-rule="evenodd" fill="RGB(255,191,0)"/>
<path d="M246.67 555.94L246.67 386.8 244.68 386.8 246.67 555.94Z"
fill-rule="evenodd" fill="RGB(255,191,0)"/>
<path d="M244.68 62.56L246.67 62.56 244.68 45.5 244.68 62.56Z"
fill-rule="evenodd" fill="RGB(255,191,0)"/>
<path d="M246.67 62.56L246.67 44.26 244.68 45.5 246.67 62.56Z"
fill-rule="evenodd" fill="RGB(255,191,0)"/>
<path d="M246.67 555.94L254.07 560.28 246.67 386.8 246.67 555.94Z"
fill-rule="evenodd" fill="RGB(255,191,0)"/>
<path d="M254.07 560.28L254.07 386.8 246.67 386.8 254.07 560.28Z"
fill-rule="evenodd" fill="RGB(255,191,0)"/>
<path d="M246.67 62.56L254.07 62.56 246.67 44.26 246.67 62.56Z"
fill-rule="evenodd" fill="RGB(255,191,0)"/>
<path d="M254.07 62.56L254.07 39.99 246.67 44.26 254.07 62.56Z"
fill-rule="evenodd" fill="RGB(255,191,0)"/>
<path d="M254.07 560.28L256.1 561.37 254.07 386.8 254.07 560.28Z"
fill-rule="evenodd" fill="RGB(255,191,0)"/>
<path d="M256.1 561.37L256.1 386.8 254.07 386.8 256.1 561.37Z"
fill-rule="evenodd" fill="RGB(255,191,0)"/>
<path d="M254.07 62.56L256.1 62.56 254.07 39.99 254.07 62.56Z"
fill-rule="evenodd" fill="RGB(255,191,0)"/>
<path d="M256.1 62.56L256.1 38.83 254.07 39.99 256.1 62.56Z"
fill-rule="evenodd" fill="RGB(255,191,0)"/>
<path d="M256.1 561.37L263.66 565.44 256.1 386.8 256.1 561.37Z"
fill-rule="evenodd" fill="RGB(255,191,0)"/>
<path d="M263.66 565.44L263.66 386.8 256.1 386.8 263.66 565.44Z"
fill-rule="evenodd" fill="RGB(255,191,0)"/>
<path d="M256.1 62.56L263.66 62.56 256.1 38.83 256.1 62.56Z"
fill-rule="evenodd" fill="RGB(255,191,0)"/>
<path d="M263.66 62.56L263.66 34.84 256.1 38.83 263.66 62.56Z"
fill-rule="evenodd" fill="RGB(255,191,0)"/>
<path d="M263.66 565.44L265.72 566.46 263.66 386.8 263.66 565.44Z"
fill-rule="evenodd" fill="RGB(255,191,0)"/>
<path d="M265.72 566.46L265.72 386.8 263.66 386.8 265.72 566.46Z"
fill-rule="evenodd" fill="RGB(255,191,0)"/>
<path d="M263.66 62.56L265.72 62.56 263.66 34.84 263.66 62.56Z"
fill-rule="evenodd" fill="RGB(255,191,0)"/>
<path d="M265.72 62.56L265.72 33.75 263.66 34.84 265.72 62.56Z"
fill-rule="evenodd" fill="RGB(255,191,0)"/>
<path d="M265.72 566.46L273.42 570.25 265.72 386.8 265.72 566.46Z"
fill-rule="evenodd" fill="RGB(255,191,0)"/>
<path d="M273.42 570.25L273.42 386.8 265.72 386.8 273.42 570.25Z"
fill-rule="evenodd" fill="RGB(255,191,0)"/>
<path d="M265.72 62.56L273.42 62.56 265.72 33.75 265.72 62.56Z"
fill-rule="evenodd" fill="RGB(255,191,0)"/>
<path d="M273.42 62.56L273.42 30.03 265.72 33.75 273.42 62.56Z"
fill-rule="evenodd" fill="RGB(255,191,0)"/>
<path d="M273.42 570.25L275.52 571.19 273.42 386.8 273.42 570.25Z"
fill-rule="evenodd" fill="RGB(255,191,0)"/>
<path d="M275.52 571.19L275.52 386.8 273.42 386.8 275.52 571.19Z"
fill-rule="evenodd" fill="RGB(255,191,0)"/>
<path d="M273.42 62.56L275.52 62.56 273.42 30.03 273.42 62.56Z"
fill-rule="evenodd" fill="RGB(255,191,0)"/>
<path d="M275.52 62.56L275.52 29.02 273.42 30.03 275.52 62.56Z"
fill-rule="evenodd" fill="RGB(255,191,0)"/>
<path d="M275.52 571.19L283.36 574.69 275.52 386.8 275.52 571.19Z"
fill-rule="evenodd" fill="RGB(255,191,0)"/>
<path d="M283.36 574.69L283.36 386.8 275.52 386.8 283.36 574.69Z"
fill-rule="evenodd" fill="RGB(255,191,0)"/>
<path d="M275.52 62.56L283.36 62.56 275.52 29.02 275.52 62.56Z"
fill-rule="evenodd" fill="RGB(255,191,0)"/>
<path d="M283.36 62.56L283.36 25.59 275.52 29.02 283.36 62.56Z"
fill-rule="evenodd" fill="RGB(255,191,0)"/>
<path d="M283.36 574.69L285.49 575.56 283.36 386.8 283.36 574.69Z"
fill-rule="evenodd" fill="RGB(255,191,0)"/>
<path d="M285.49 575.56L285.49 386.8 283.36 386.8 285.49 575.56Z"
fill-rule="evenodd" fill="RGB(255,191,0)"/>
<path d="M283.36 62.56L285.49 62.56 283.36 25.59 283.36 62.56Z"
fill-rule="evenodd" fill="RGB(255,191,0)"/>
<path d="M285.49 62.56L285.49 24.65 283.36 25.59 285.49 62.56Z"
fill-rule="evenodd" fill="RGB(255,191,0)"/>
<path d="M285.49 575.56L293.45 578.77 285.49 386.8 285.49 575.56Z"
fill-rule="evenodd" fill="RGB(255,191,0)"/>
<path d="M293.45 578.77L293.45 386.8 285.49 386.8 293.45 578.77Z"
fill-rule="evenodd" fill="RGB(255,191,0)"/>
<path d="M285.49 62.56L293.45 62.56 285.49 24.65 285.49 62.56Z"
fill-rule="evenodd" fill="RGB(255,191,0)"/>
<path d="M293.45 62.56L293.45 21.5 285.49 24.65 293.45 62.56Z"
fill-rule="evenodd" fill="RGB(255,191,0)"/>
<path d="M293.45 578.77L295.61 579.56 293.45 386.8 293.45 578.77Z"
fill-rule="evenodd" fill="RGB(255,191,0)"/>
<path d="M295.61 579.56L295.61 386.8 293.45 386.8 295.61 579.56Z"
fill-rule="evenodd" fill="RGB(255,191,0)"/>
<path d="M293.45 62.56L295.61 62.56 293.45 21.5 293.45 62.56Z"
fill-rule="evenodd" fill="RGB(255,191,0)"/>
<path d="M295.61 62.56L295.61 20.65 293.45 21.5 295.61 62.56Z"
fill-rule="evenodd" fill="RGB(255,191,0)"/>
<path d="M295.61 579.56L303.68 582.48 295.61 386.8 295.61 579.56Z"
fill-rule="evenodd" fill="RGB(255,191,0)"/>
<path d="M303.68 582.48L303.68 386.8 295.61 386.8 303.68 582.48Z"
fill-rule="evenodd" fill="RGB(255,191,0)"/>
<path d="M295.61 62.56L303.68 62.56 295.61 20.65 295.61 62.56Z"
fill-rule="evenodd" fill="RGB(255,191,0)"/>
<path d="M303.68 62.56L303.68 17.79 295.61 20.65 303.68 62.56Z"
fill-rule="evenodd" fill="RGB(255,191,0)"/>
<path d="M303.68 582.48L305.87 583.19 303.68 386.8 303.68 582.48Z"
fill-rule="evenodd" fill="RGB(255,191,0)"/>
<path d="M305.87 583.19L305.87 386.8 303.68 386.8 305.87 583.19Z"
fill-rule="evenodd" fill="RGB(255,191,0)"/>
<path d="M303.68 62.56L305.87 62.56 303.68 17.79 303.68 62.56Z"
fill-rule="evenodd" fill="RGB(255,191,0)"/>
<path d="M305.87 62.56L305.87 17.02 303.68 17.79 305.87 62.56Z"
fill-rule="evenodd" fill="RGB(255,191,0)"/>
<path d="M305.87 583.19L314.04 585.81 305.87 386.8 305.87 583.19Z"
fill-rule="evenodd" fill="RGB(255,191,0)"/>
<path d="M314.04 585.81L314.04 386.8 305.87 386.8 314.04 585.81Z"
fill-rule="evenodd" fill="RGB(255,191,0)"/>
<path d="M305.87 62.56L314.04 62.56 305.87 17.02 305.87 62.56Z"
fill-rule="evenodd" fill="RGB(255,191,0)"/>
<path d="M314.04 62.56L314.04 14.46 305.87 17.02 314.04 62.56Z"
fill-rule="evenodd" fill="RGB(255,191,0)"/>
<path d="M314.04 585.81L316.26 586.44 314.04 386.8 314.04 585.81Z"
fill-rule="evenodd" fill="RGB(255,191,0)"/>
<path d="M316.26 586.44L316.26 386.8 314.04 386.8 316.26 586.44Z"
fill-rule="evenodd" fill="RGB(255,191,0)"/>
<path d="M314.04 62.56L316.26 62.56 314.04 14.46 314.04 62.56Z"
fill-rule="evenodd" fill="RGB(255,191,0)"/>
<path d="M316.26 62.56L316.26 13.76 314.04 14.46 316.26 62.56Z"
fill-rule="evenodd" fill="RGB(255,191,0)"/>
<path d="M316.26 586.44L324.51 588.77 316.26 386.8 316.26 586.44Z"
fill-rule="evenodd" fill="RGB(255,191,0)"/>
<path d="M324.51 588.77L324.51 386.8 316.26 386.8 324.51 588.77Z"
fill-rule="evenodd" fill="RGB(255,191,0)"/>
<path d="M316.26 62.56L324.51 62.56 316.26 13.76 316.26 62.56Z"
fill-rule="evenodd" fill="RGB(255,191,0)"/>
<path d="M324.51 62.56L324.51 11.51 316.26 13.76 324.51 62.56Z"
fill-rule="evenodd" fill="RGB(255,191,0)"/>
<path d="M324.51 588.77L326.76 589.31 324.51 386.8 324.51 588.77Z"
fill-rule="evenodd" fill="RGB(255,191,0)"/>
<path d="M326.76 589.31L326.76 386.8 324.51 386.8 326.76 589.31Z"
fill-rule="evenodd" fill="RGB(255,191,0)"/>
<path d="M324.51 62.56L326.76 62.56 324.51 11.51 324.51 62.56Z"
fill-rule="evenodd" fill="RGB(255,191,0)"/>
<path d="M326.76 62.56L326.76 10.89 324.51 11.51 326.76 62.56Z"
fill-rule="evenodd" fill="RGB(255,191,0)"/>
<path d="M326.76 589.31L335.09 591.34 326.76 386.8 326.76 589.31Z"
fill-rule="evenodd" fill="RGB(255,191,0)"/>
<path d="M335.09 591.34L335.09 386.8 326.76 386.8 335.09 591.34Z"
fill-rule="evenodd" fill="RGB(255,191,0)"/>
<path d="M326.76 62.56L335.09 62.56 326.76 10.89 326.76 62.56Z"
fill-rule="evenodd" fill="RGB(255,191,0)"/>
<path d="M335.09 62.56L335.09 8.94 326.76 10.89 335.09 62.56Z"
fill-rule="evenodd" fill="RGB(255,191,0)"/>
<path d="M335.09 591.34L337.35 591.8 335.09 386.8 335.09 591.34Z"
fill-rule="evenodd" fill="RGB(255,191,0)"/>
<path d="M337.35 591.8L337.35 386.8 335.09 386.8 337.35 591.8Z"
fill-rule="evenodd" fill="RGB(255,191,0)"/>
<path d="M335.09 62.56L337.35 62.56 335.09 8.94 335.09 62.56Z"
fill-rule="evenodd" fill="RGB(255,191,0)"/>
<path d="M337.35 62.56L337.35 8.4 335.09 8.94 337.35 62.56Z"
fill-rule="evenodd" fill="RGB(255,191,0)"/>
<path d="M337.35 591.8L345.75 593.52 337.35 386.8 337.35 591.8Z"
fill-rule="evenodd" fill="RGB(255,191,0)"/>
<path d="M345.75 593.52L345.75 386.8 337.35 386.8 345.75 593.52Z"
fill-rule="evenodd" fill="RGB(255,191,0)"/>
<path d="M337.35 62.56L345.75 62.56 337.35 8.4 337.35 62.56Z"
fill-rule="evenodd" fill="RGB(255,191,0)"/>
<path d="M345.75 62.56L345.75 6.75 337.35 8.4 345.75 62.56Z"
fill-rule="evenodd" fill="RGB(255,191,0)"/>
<path d="M345.75 593.52L348.03 593.9 345.75 386.8 345.75 593.52Z"
fill-rule="evenodd" fill="RGB(255,191,0)"/>
<path d="M348.03 593.9L348.03 386.8 345.75 386.8 348.03 593.9Z"
fill-rule="evenodd" fill="RGB(255,191,0)"/>
<path d="M345.75 62.56L348.03 62.56 345.75 6.75 345.75 62.56Z"
fill-rule="evenodd" fill="RGB(255,191,0)"/>
<path d="M348.03 62.56L348.03 6.3 345.75 6.75 348.03 62.56Z"
fill-rule="evenodd" fill="RGB(255,191,0)"/>
<path d="M348.03 593.9L356.48 595.31 348.03 386.8 348.03 593.9Z"
fill-rule="evenodd" fill="RGB(255,191,0)"/>
<path d="M356.48 595.31L356.48 386.8 348.03 386.8 356.48 595.31Z"
fill-rule="evenodd" fill="RGB(255,191,0)"/>
<path d="M348.03 62.56L356.48 62.56 348.03 6.3 348.03 62.56Z"
fill-rule="evenodd" fill="RGB(255,191,0)"/>
<path d="M356.48 62.56L356.48 4.96 348.03 6.3 356.48 62.56Z"
fill-rule="evenodd" fill="RGB(255,191,0)"/>
<path d="M356.48 595.31L358.78 595.61 356.48 386.8 356.48 595.31Z"
fill-rule="evenodd" fill="RGB(255,191,0)"/>
<path d="M358.78 595.61L358.78 386.8 356.48 386.8 358.78 595.61Z"
fill-rule="evenodd" fill="RGB(255,191,0)"/>
<path d="M356.48 62.56L358.78 62.56 356.48 4.96 356.48 62.56Z"
fill-rule="evenodd" fill="RGB(255,191,0)"/>
<path d="M358.78 62.56L358.78 4.59 356.48 4.96 358.78 62.56Z"
fill-rule="evenodd" fill="RGB(255,191,0)"/>
<path d="M358.78 595.61L367.28 596.71 358.78 386.8 358.78 595.61Z"
fill-rule="evenodd" fill="RGB(255,191,0)"/>
<path d="M367.28 596.71L367.28 386.8 358.78 386.8 367.28 596.71Z"
fill-rule="evenodd" fill="RGB(255,191,0)"/>
<path d="M358.78 62.56L367.28 62.56 358.78 4.59 358.78 62.56Z"
fill-rule="evenodd" fill="RGB(255,191,0)"/>
<path d="M367.28 62.56L367.28 3.56 358.78 4.59 367.28 62.56Z"
fill-rule="evenodd" fill="RGB(255,191,0)"/>
<path d="M367.28 596.71L369.58 596.93 367.28 386.8 367.28 596.71Z"
fill-rule="evenodd" fill="RGB(255,191,0)"/>
<path d="M369.58 596.93L369.58 386.8 367.28 386.8 369.58 596.93Z"
fill-rule="evenodd" fill="RGB(255,191,0)"/>
<path d="M367.28 62.56L369.58 62.56 367.28 3.56 367.28 62.56Z"
fill-rule="evenodd" fill="RGB(255,191,0)"/>
<path d="M369.58 62.56L369.58 3.28 367.28 3.56 369.58 62.56Z"
fill-rule="evenodd" fill="RGB(255,191,0)"/>
<path d="M369.58 596.93L378.11 597.72 369.58 386.8 369.58 596.93Z"
fill-rule="evenodd" fill="RGB(255,191,0)"/>
<path d="M378.11 597.72L378.11 386.8 369.58 386.8 378.11 597.72Z"
fill-rule="evenodd" fill="RGB(255,191,0)"/>
<path d="M369.58 62.56L378.11 62.56 369.58 3.28 369.58 62.56Z"
fill-rule="evenodd" fill="RGB(255,191,0)"/>
<path d="M378.11 62.56L378.11 2.55 369.58 3.28 378.11 62.56Z"
fill-rule="evenodd" fill="RGB(255,191,0)"/>
<path d="M378.11 597.72L380.43 597.85 378.11 386.8 378.11 597.72Z"
fill-rule="evenodd" fill="RGB(255,191,0)"/>
<path d="M380.43 597.85L380.43 386.8 378.11 386.8 380.43 597.85Z"
fill-rule="evenodd" fill="RGB(255,191,0)"/>
<path d="M378.11 62.56L380.43 62.56 378.11 2.55 378.11 62.56Z"
fill-rule="evenodd" fill="RGB(255,191,0)"/>
<path d="M380.43 62.56L380.43 2.36 378.11 2.55 380.43 62.56Z"
fill-rule="evenodd" fill="RGB(255,191,0)"/>
<path d="M380.43 597.85L388.98 598.33 380.43 386.8 380.43 597.85Z"
fill-rule="evenodd" fill="RGB(255,191,0)"/>
<path d="M388.98 598.33L388.98 386.8 380.43 386.8 388.98 598.33Z"
fill-rule="evenodd" fill="RGB(255,191,0)"/>
<path d="M380.43 62.56L388.98 62.56 380.43 2.36 380.43 62.56Z"
fill-rule="evenodd" fill="RGB(255,191,0)"/>
<path d="M388.98 62.56L388.98 1.94 380.43 2.36 388.98 62.56Z"
fill-rule="evenodd" fill="RGB(255,191,0)"/>
<path d="M388.98 598.33L391.3 598.38 388.98 386.8 388.98 598.33Z"
fill-rule="evenodd" fill="RGB(255,191,0)"/>
<path d="M391.3 598.38L391.3 386.8 388.98 386.8 391.3 598.38Z"
fill-rule="evenodd" fill="RGB(255,191,0)"/>
<path d="M388.98 62.56L391.3 62.56 388.98 1.94 388.98 62.56Z"
fill-rule="evenodd" fill="RGB(255,191,0)"/>
<path d="M391.3 62.56L391.3 1.83 388.98 1.94 391.3 62.56Z"
fill-rule="evenodd" fill="RGB(255,191,0)"/>
<path d="M391.3 598.38L399.86 598.54 391.3 386.8 391.3 598.38Z"
fill-rule="evenodd" fill="RGB(255,191,0)"/>
<path d="M399.86 598.54L399.86 386.8 391.3 386.8 399.86 598.54Z"
fill-rule="evenodd" fill="RGB(255,191,0)"/>
<path d="M391.3 62.56L399.86 62.56 391.3 1.83 391.3 62.56Z"
fill-rule="evenodd" fill="RGB(255,191,0)"/>
<path d="M399.86 62.56L399.86 1.73 391.3 1.83 399.86 62.56Z"
fill-rule="evenodd" fill="RGB(255,191,0)"/>
<path d="M399.86 598.54L402.18 598.5 399.86 386.8 399.86 598.54Z"
fill-rule="evenodd" fill="RGB(255,191,0)"/>
<path d="M402.18 598.5L402.18 386.8 399.86 386.8 402.18 598.5Z"
fill-rule="evenodd" fill="RGB(255,191,0)"/>
<path d="M399.86 62.56L402.18 62.56 399.86 1.73 399.86 62.56Z"
fill-rule="evenodd" fill="RGB(255,191,0)"/>
<path d="M402.18 62.56L402.18 1.7 399.86 1.73 402.18 62.56Z"
fill-rule="evenodd" fill="RGB(255,191,0)"/>
<path d="M402.18 598.5L410.74 598.36 402.18 386.8 402.18 598.5Z"
fill-rule="evenodd" fill="RGB(255,191,0)"/>
<path d="M410.74 598.36L410.74 386.8 402.18 386.8 410.74 598.36Z"
fill-rule="evenodd" fill="RGB(255,191,0)"/>
<path d="M402.18 62.56L410.74 62.56 402.18 1.7 402.18 62.56Z"
fill-rule="evenodd" fill="RGB(255,191,0)"/>
<path d="M410.74 62.56L410.74 1.91 402.18 1.7 410.74 62.56Z"
fill-rule="evenodd" fill="RGB(255,191,0)"/>
<path d="M410.74 598.36L413.06 598.24 410.74 386.8 410.74 598.36Z"
fill-rule="evenodd" fill="RGB(255,191,0)"/>
<path d="M413.06 598.24L413.06 386.8 410.74 386.8 413.06 598.24Z"
fill-rule="evenodd" fill="RGB(255,191,0)"/>
<path d="M410.74 62.56L413.06 62.56 410.74 1.91 410.74 62.56Z"
fill-rule="evenodd" fill="RGB(255,191,0)"/>
<path d="M413.06 62.56L413.06 1.97 410.74 1.91 413.06 62.56Z"
fill-rule="evenodd" fill="RGB(255,191,0)"/>
<path d="M413.06 598.24L421.61 597.78 413.06 386.8 413.06 598.24Z"
fill-rule="evenodd" fill="RGB(255,191,0)"/>
<path d="M421.61 597.78L421.61 386.8 413.06 386.8 421.61 597.78Z"
fill-rule="evenodd" fill="RGB(255,191,0)"/>
<path d="M413.06 62.56L421.61 62.56 413.06 1.97 413.06 62.56Z"
fill-rule="evenodd" fill="RGB(255,191,0)"/>
<path d="M421.61 62.56L421.61 2.49 413.06 1.97 421.61 62.56Z"
fill-rule="evenodd" fill="RGB(255,191,0)"/>
<path d="M421.61 597.78L423.44 597.61 421.61 386.8 421.61 597.78Z"
fill-rule="evenodd" fill="RGB(255,191,0)"/>
<path d="M423.44 597.61L423.44 386.8 421.61 386.8 423.44 597.61Z"
fill-rule="evenodd" fill="RGB(255,191,0)"/>
<path d="M421.61 62.56L423.44 62.56 421.61 2.49 421.61 62.56Z"
fill-rule="evenodd" fill="RGB(255,191,0)"/>
<path d="M423.44 62.56L423.44 2.61 421.61 2.49 423.44 62.56Z"
fill-rule="evenodd" fill="RGB(255,191,0)"/>
<path d="M423.44 597.61L423.92 597.57 423.44 386.8 423.44 597.61Z"
fill-rule="evenodd" fill="RGB(255,191,0)"/>
<path d="M423.92 597.57L423.92 386.32 423.44 386.8 423.92 597.57Z"
fill-rule="evenodd" fill="RGB(255,191,0)"/>
<path d="M423.44 62.56L423.92 63.04 423.44 2.61 423.44 62.56Z"
fill-rule="evenodd" fill="RGB(255,191,0)"/>
<path d="M423.92 63.04L423.92 2.64 423.44 2.61 423.92 63.04Z"
fill-rule="evenodd" fill="RGB(255,191,0)"/>
<path d="M423.92 597.57L432.45 596.8 423.92 386.32 423.92 597.57Z"
fill-rule="evenodd" fill="RGB(255,191,0)"/>
<path d="M432.45 596.8L432.45 377.79 423.92 386.32 432.45 596.8Z"
fill-rule="evenodd" fill="RGB(255,191,0)"/>
<path d="M423.92 63.04L432.45 71.57 423.92 2.64 423.92 63.04Z"
fill-rule="evenodd" fill="RGB(255,191,0)"/>
<path d="M432.45 71.57L432.45 3.47 423.92 2.64 432.45 71.57Z"
fill-rule="evenodd" fill="RGB(255,191,0)"/>
<path d="M432.45 596.8L434.75 596.51 432.45 377.79 432.45 596.8Z"
fill-rule="evenodd" fill="RGB(255,191,0)"/>
<path d="M434.75 596.51L434.75 375.48 432.45 377.79 434.75 596.51Z"
fill-rule="evenodd" fill="RGB(255,191,0)"/>
<path d="M432.45 71.57L434.75 73.88 432.45 3.47 432.45 71.57Z"
fill-rule="evenodd" fill="RGB(255,191,0)"/>
<path d="M434.75 73.88L434.75 3.7 432.45 3.47 434.75 73.88Z"
fill-rule="evenodd" fill="RGB(255,191,0)"/>
<path d="M434.75 596.51L443.25 595.43 434.75 375.48 434.75 596.51Z"
fill-rule="evenodd" fill="RGB(255,191,0)"/>
<path d="M443.25 595.43L443.25 366.99 434.75 375.48 443.25 595.43Z"
fill-rule="evenodd" fill="RGB(255,191,0)"/>
<path d="M434.75 73.88L443.25 82.37 434.75 3.7 434.75 73.88Z"
fill-rule="evenodd" fill="RGB(255,191,0)"/>
<path d="M443.25 82.37L443.25 4.84 434.75 3.7 443.25 82.37Z"
fill-rule="evenodd" fill="RGB(255,191,0)"/>
<path d="M443.25 595.43L445.54 595.05 443.25 366.99 443.25 595.43Z"
fill-rule="evenodd" fill="RGB(255,191,0)"/>
<path d="M445.54 595.05L445.54 364.7 443.25 366.99 445.54 595.05Z"
fill-rule="evenodd" fill="RGB(255,191,0)"/>
<path d="M443.25 82.37L445.54 84.66 443.25 4.84 443.25 82.37Z"
fill-rule="evenodd" fill="RGB(255,191,0)"/>
<path d="M445.54 84.66L445.54 5.15 443.25 4.84 445.54 84.66Z"
fill-rule="evenodd" fill="RGB(255,191,0)"/>
<path d="M445.54 595.05L453.99 593.67 445.54 364.7 445.54 595.05Z"
fill-rule="evenodd" fill="RGB(255,191,0)"/>
<path d="M453.99 593.67L453.99 356.25 445.54 364.7 453.99 593.67Z"
fill-rule="evenodd" fill="RGB(255,191,0)"/>
<path d="M445.54 84.66L453.99 93.11 445.54 5.15 445.54 84.66Z"
fill-rule="evenodd" fill="RGB(255,191,0)"/>
<path d="M453.99 93.11L453.99 6.61 445.54 5.15 453.99 93.11Z"
fill-rule="evenodd" fill="RGB(255,191,0)"/>
<path d="M453.99 593.67L456.26 593.21 453.99 356.25 453.99 593.67Z"
fill-rule="evenodd" fill="RGB(255,191,0)"/>
<path d="M456.26 593.21L456.26 353.97 453.99 356.25 456.26 593.21Z"
fill-rule="evenodd" fill="RGB(255,191,0)"/>
<path d="M453.99 93.11L456.26 95.39 453.99 6.61 453.99 93.11Z"
fill-rule="evenodd" fill="RGB(255,191,0)"/>
<path d="M456.26 95.39L456.26 7 453.99 6.61 456.26 95.39Z"
fill-rule="evenodd" fill="RGB(255,191,0)"/>
<path d="M456.26 593.21L463.97 591.65 456.26 353.97 456.26 593.21Z"
fill-rule="evenodd" fill="RGB(255,191,0)"/>
<path d="M463.97 591.65L463.97 346.27 456.26 353.97 463.97 591.65Z"
fill-rule="evenodd" fill="RGB(255,191,0)"/>
<path d="M456.26 95.39L463.97 103.09 456.26 7 456.26 95.39Z"
fill-rule="evenodd" fill="RGB(255,191,0)"/>
<path d="M463.97 103.09L463.97 8.62 456.26 7 463.97 103.09Z"
fill-rule="evenodd" fill="RGB(255,191,0)"/>
<path d="M463.97 591.65L464.65 591.51 463.97 8.62 463.97 591.65Z"
fill-rule="evenodd" fill="RGB(255,191,0)"/>
<path d="M464.65 591.51L464.65 8.76 463.97 8.62 464.65 591.51Z"
fill-rule="evenodd" fill="RGB(255,191,0)"/>
<path d="M464.65 591.51L466.91 590.97 464.65 8.76 464.65 591.51Z"
fill-rule="evenodd" fill="RGB(255,191,0)"/>
<path d="M466.91 590.97L466.91 9.24 464.65 8.76 466.91 590.97Z"
fill-rule="evenodd" fill="RGB(255,191,0)"/>
<path d="M466.91 590.97L475.24 588.97 466.91 9.24 466.91 590.97Z"
fill-rule="evenodd" fill="RGB(255,191,0)"/>
<path d="M475.24 588.97L475.24 11.3 466.91 9.24 475.24 588.97Z"
fill-rule="evenodd" fill="RGB(255,191,0)"/>
<path d="M475.24 588.97L477.48 588.35 475.24 11.3 475.24 588.97Z"
fill-rule="evenodd" fill="RGB(255,191,0)"/>
<path d="M477.48 588.35L477.48 11.86 475.24 11.3 477.48 588.35Z"
fill-rule="evenodd" fill="RGB(255,191,0)"/>
<path d="M477.48 588.35L485.72 586.05 477.48 11.86 477.48 588.35Z"
fill-rule="evenodd" fill="RGB(255,191,0)"/>
<path d="M485.72 586.05L485.72 14.23 477.48 11.86 485.72 586.05Z"
fill-rule="evenodd" fill="RGB(255,191,0)"/>
<path d="M485.72 586.05L487.94 585.34 485.72 14.23 485.72 586.05Z"
fill-rule="evenodd" fill="RGB(255,191,0)"/>
<path d="M487.94 585.34L487.94 14.87 485.72 14.23 487.94 585.34Z"
fill-rule="evenodd" fill="RGB(255,191,0)"/>
<path d="M487.94 585.34L496.09 582.74 487.94 14.87 487.94 585.34Z"
fill-rule="evenodd" fill="RGB(255,191,0)"/>
<path d="M496.09 582.74L496.09 17.54 487.94 14.87 496.09 582.74Z"
fill-rule="evenodd" fill="RGB(255,191,0)"/>
<path d="M496.09 582.74L498.28 581.95 496.09 17.54 496.09 582.74Z"
fill-rule="evenodd" fill="RGB(255,191,0)"/>
<path d="M498.28 581.95L498.28 18.25 496.09 17.54 498.28 581.95Z"
fill-rule="evenodd" fill="RGB(255,191,0)"/>
<path d="M498.28 581.95L506.33 579.06 498.28 18.25 498.28 581.95Z"
fill-rule="evenodd" fill="RGB(255,191,0)"/>
<path d="M506.33 579.06L506.33 21.22 498.28 18.25 506.33 579.06Z"
fill-rule="evenodd" fill="RGB(255,191,0)"/>
<path d="M506.33 579.06L508.49 578.19 506.33 21.22 506.33 579.06Z"
fill-rule="evenodd" fill="RGB(255,191,0)"/>
<path d="M508.49 578.19L508.49 22.01 506.33 21.22 508.49 578.19Z"
fill-rule="evenodd" fill="RGB(255,191,0)"/>
<path d="M508.49 578.19L516.43 575.01 508.49 22.01 508.49 578.19Z"
fill-rule="evenodd" fill="RGB(255,191,0)"/>
<path d="M516.43 575.01L516.43 25.27 508.49 22.01 516.43 575.01Z"
fill-rule="evenodd" fill="RGB(255,191,0)"/>
<path d="M516.43 575.01L518.56 574.06 516.43 25.27 516.43 575.01Z"
fill-rule="evenodd" fill="RGB(255,191,0)"/>
<path d="M518.56 574.06L518.56 26.15 516.43 25.27 518.56 574.06Z"
fill-rule="evenodd" fill="RGB(255,191,0)"/>
<path d="M518.56 574.06L526.37 570.59 518.56 26.15 518.56 574.06Z"
fill-rule="evenodd" fill="RGB(255,191,0)"/>
<path d="M526.37 570.59L526.37 29.69 518.56 26.15 526.37 570.59Z"
fill-rule="evenodd" fill="RGB(255,191,0)"/>
<path d="M526.37 570.59L528.47 569.56 526.37 29.69 526.37 570.59Z"
fill-rule="evenodd" fill="RGB(255,191,0)"/>
<path d="M528.47 569.56L528.47 30.64 526.37 29.69 528.47 569.56Z"
fill-rule="evenodd" fill="RGB(255,191,0)"/>
<path d="M528.47 569.56L536.15 565.81 528.47 30.64 528.47 569.56Z"
fill-rule="evenodd" fill="RGB(255,191,0)"/>
<path d="M536.15 565.81L536.15 34.47 528.47 30.64 536.15 565.81Z"
fill-rule="evenodd" fill="RGB(255,191,0)"/>
<path d="M536.15 565.81L538.21 564.71 536.15 34.47 536.15 565.81Z"
fill-rule="evenodd" fill="RGB(255,191,0)"/>
<path d="M538.21 564.71L538.21 35.5 536.15 34.47 538.21 564.71Z"
fill-rule="evenodd" fill="RGB(255,191,0)"/>
<path d="M538.21 564.71L545.75 560.68 538.21 35.5 538.21 564.71Z"
fill-rule="evenodd" fill="RGB(255,191,0)"/>
<path d="M545.75 560.68L545.75 39.6 538.21 35.5 545.75 560.68Z"
fill-rule="evenodd" fill="RGB(255,191,0)"/>
<path d="M545.75 560.68L547.77 559.5 545.75 39.6 545.75 560.68Z"
fill-rule="evenodd" fill="RGB(255,191,0)"/>
<path d="M547.77 559.5L547.77 40.7 545.75 39.6 547.77 559.5Z"
fill-rule="evenodd" fill="RGB(255,191,0)"/>
<path d="M547.77 559.5L555.15 555.2 547.77 40.7 547.77 559.5Z"
fill-rule="evenodd" fill="RGB(255,191,0)"/>
<path d="M555.15 555.2L555.15 45.08 547.77 40.7 555.15 555.2Z"
fill-rule="evenodd" fill="RGB(255,191,0)"/>
<path d="M555.15 555.2L557.13 553.95 555.15 45.08 555.15 555.2Z"
fill-rule="evenodd" fill="RGB(255,191,0)"/>
<path d="M557.13 553.95L557.13 46.25 555.15 45.08 557.13 553.95Z"
fill-rule="evenodd" fill="RGB(255,191,0)"/>
<path d="M557.13 553.95L564.35 549.38 557.13 46.25 557.13 553.95Z"
fill-rule="evenodd" fill="RGB(255,191,0)"/>
<path d="M564.35 549.38L564.35 50.9 557.13 46.25 564.35 549.38Z"
fill-rule="evenodd" fill="RGB(255,191,0)"/>
<path d="M564.35 549.38L566.28 548.06 564.35 50.9 564.35 549.38Z"
fill-rule="evenodd" fill="RGB(255,191,0)"/>
<path d="M566.28 548.06L566.28 52.14 564.35 50.9 566.28 548.06Z"
fill-rule="evenodd" fill="RGB(255,191,0)"/>
<path d="M566.28 548.06L573.33 543.23 566.28 52.14 566.28 548.06Z"
fill-rule="evenodd" fill="RGB(255,191,0)"/>
<path d="M573.33 543.23L573.33 57.05 566.28 52.14 573.33 543.23Z"
fill-rule="evenodd" fill="RGB(255,191,0)"/>
<path d="M573.33 543.23L575.22 541.84 573.33 57.05 573.33 543.23Z"
fill-rule="evenodd" fill="RGB(255,191,0)"/>
<path d="M575.22 541.84L575.22 58.36 573.33 57.05 575.22 541.84Z"
fill-rule="evenodd" fill="RGB(255,191,0)"/>
<path d="M575.22 541.84L582.08 536.76 575.22 58.36 575.22 541.84Z"
fill-rule="evenodd" fill="RGB(255,191,0)"/>
<path d="M582.08 536.76L582.08 63.52 575.22 58.36 582.08 536.76Z"
fill-rule="evenodd" fill="RGB(255,191,0)"/>
<path d="M582.08 536.76L583.91 535.3 582.08 63.52 582.08 536.76Z"
fill-rule="evenodd" fill="RGB(255,191,0)"/>
<path d="M583.91 535.3L583.91 64.9 582.08 63.52 583.91 535.3Z"
fill-rule="evenodd" fill="RGB(255,191,0)"/>
<path d="M583.91 535.3L590.59 529.97 583.91 64.9 583.91 535.3Z"
fill-rule="evenodd" fill="RGB(255,191,0)"/>
<path d="M590.59 529.97L590.59 70.31 583.91 64.9 590.59 529.97Z"
fill-rule="evenodd" fill="RGB(255,191,0)"/>
<path d="M590.59 529.97L592.37 528.44 590.59 70.31 590.59 529.97Z"
fill-rule="evenodd" fill="RGB(255,191,0)"/>
<path d="M592.37 528.44L592.37 71.75 590.59 70.31 592.37 528.44Z"
fill-rule="evenodd" fill="RGB(255,191,0)"/>
<path d="M592.37 528.44L598.84 522.88 592.37 71.75 592.37 528.44Z"
fill-rule="evenodd" fill="RGB(255,191,0)"/>
<path d="M598.84 522.88L598.84 77.4 592.37 71.75 598.84 522.88Z"
fill-rule="evenodd" fill="RGB(255,191,0)"/>
<path d="M598.84 522.88L600.57 521.29 598.84 77.4 598.84 522.88Z"
fill-rule="evenodd" fill="RGB(255,191,0)"/>
<path d="M600.57 521.29L600.57 78.91 598.84 77.4 600.57 521.29Z"
fill-rule="evenodd" fill="RGB(255,191,0)"/>
<path d="M600.57 521.29L606.83 515.49 600.57 78.91 600.57 521.29Z"
fill-rule="evenodd" fill="RGB(255,191,0)"/>
<path d="M606.83 515.49L606.83 84.79 600.57 78.91 606.83 515.49Z"
fill-rule="evenodd" fill="RGB(255,191,0)"/>
<path d="M606.83 515.49L608.5 513.83 606.83 84.79 606.83 515.49Z"
fill-rule="evenodd" fill="RGB(255,191,0)"/>
<path d="M608.5 513.83L608.5 86.36 606.83 84.79 608.5 513.83Z"
fill-rule="evenodd" fill="RGB(255,191,0)"/>
<path d="M608.5 513.83L614.55 507.82 608.5 86.36 608.5 513.83Z"
fill-rule="evenodd" fill="RGB(255,191,0)"/>
<path d="M614.55 507.82L614.55 92.47 608.5 86.36 614.55 507.82Z"
fill-rule="evenodd" fill="RGB(255,191,0)"/>
<path d="M614.55 507.82L616.16 506.1 614.55 92.47 614.55 507.82Z"
fill-rule="evenodd" fill="RGB(255,191,0)"/>
<path d="M616.16 506.1L616.16 94.1 614.55 92.47 616.16 506.1Z"
fill-rule="evenodd" fill="RGB(255,191,0)"/>
<path d="M616.16 506.1L621.98 499.86 616.16 94.1 616.16 506.1Z"
fill-rule="evenodd" fill="RGB(255,191,0)"/>
<path d="M621.98 499.86L621.98 100.43 616.16 94.1 621.98 499.86Z"
fill-rule="evenodd" fill="RGB(255,191,0)"/>
<path d="M621.98 499.86L623.53 498.08 621.98 100.43 621.98 499.86Z"
fill-rule="evenodd" fill="RGB(255,191,0)"/>
<path d="M623.53 498.08L623.53 102.1 621.98 100.43 623.53 498.08Z"
fill-rule="evenodd" fill="RGB(255,191,0)"/>
<path d="M623.53 498.08L629.12 491.65 623.53 102.1 623.53 498.08Z"
fill-rule="evenodd" fill="RGB(255,191,0)"/>
<path d="M629.12 491.65L629.12 108.64 623.53 102.1 629.12 491.65Z"
fill-rule="evenodd" fill="RGB(255,191,0)"/>
<path d="M629.12 491.65L630.6 489.81 629.12 108.64 629.12 491.65Z"
fill-rule="evenodd" fill="RGB(255,191,0)"/>
<path d="M630.6 489.81L630.6 110.38 629.12 108.64 630.6 489.81Z"
fill-rule="evenodd" fill="RGB(255,191,0)"/>
<path d="M630.6 489.81L635.95 483.17 630.6 110.38 630.6 489.81Z"
fill-rule="evenodd" fill="RGB(255,191,0)"/>
<path d="M635.95 483.17L635.95 117.12 630.6 110.38 635.95 483.17Z"
fill-rule="evenodd" fill="RGB(255,191,0)"/>
<path d="M635.95 483.17L637.36 481.28 635.95 117.12 635.95 483.17Z"
fill-rule="evenodd" fill="RGB(255,191,0)"/>
<path d="M637.36 481.28L637.36 118.9 635.95 117.12 637.36 481.28Z"
fill-rule="evenodd" fill="RGB(255,191,0)"/>
<path d="M637.36 481.28L642.47 474.46 637.36 118.9 637.36 481.28Z"
fill-rule="evenodd" fill="RGB(255,191,0)"/>
<path d="M642.47 474.46L642.47 125.84 637.36 118.9 642.47 474.46Z"
fill-rule="evenodd" fill="RGB(255,191,0)"/>
<path d="M642.47 474.46L643.81 472.51 642.47 125.84 642.47 474.46Z"
fill-rule="evenodd" fill="RGB(255,191,0)"/>
<path d="M643.81 472.51L643.81 127.67 642.47 125.84 643.81 472.51Z"
fill-rule="evenodd" fill="RGB(255,191,0)"/>
<path d="M643.81 472.51L648.66 465.51 643.81 127.67 643.81 472.51Z"
fill-rule="evenodd" fill="RGB(255,191,0)"/>
<path d="M648.66 465.51L648.66 134.79 643.81 127.67 648.66 465.51Z"
fill-rule="evenodd" fill="RGB(255,191,0)"/>
<path d="M648.66 465.51L649.94 463.51 648.66 134.79 648.66 465.51Z"
fill-rule="evenodd" fill="RGB(255,191,0)"/>
<path d="M649.94 463.51L649.94 136.66 648.66 134.79 649.94 463.51Z"
fill-rule="evenodd" fill="RGB(255,191,0)"/>
<path d="M649.94 463.51L654.53 456.34 649.94 136.66 649.94 463.51Z"
fill-rule="evenodd" fill="RGB(255,191,0)"/>
<path d="M654.53 456.34L654.53 143.96 649.94 136.66 654.53 456.34Z"
fill-rule="evenodd" fill="RGB(255,191,0)"/>
<path d="M654.53 456.34L655.73 454.3 654.53 143.96 654.53 456.34Z"
fill-rule="evenodd" fill="RGB(255,191,0)"/>
<path d="M655.73 454.3L655.73 145.88 654.53 143.96 655.73 454.3Z"
fill-rule="evenodd" fill="RGB(255,191,0)"/>
<path d="M655.73 454.3L660.05 446.97 655.73 145.88 655.73 454.3Z"
fill-rule="evenodd" fill="RGB(255,191,0)"/>
<path d="M660.05 446.97L660.05 153.34 655.73 145.88 660.05 446.97Z"
fill-rule="evenodd" fill="RGB(255,191,0)"/>
<path d="M660.05 446.97L661.19 444.88 660.05 153.34 660.05 446.97Z"
fill-rule="evenodd" fill="RGB(255,191,0)"/>
<path d="M661.19 444.88L661.19 155.29 660.05 153.34 661.19 444.88Z"
fill-rule="evenodd" fill="RGB(255,191,0)"/>
<path d="M661.19 444.88L665.24 437.4 661.19 155.29 661.19 444.88Z"
fill-rule="evenodd" fill="RGB(255,191,0)"/>
<path d="M665.24 437.4L665.24 162.91 661.19 155.29 665.24 437.4Z"
fill-rule="evenodd" fill="RGB(255,191,0)"/>
<path d="M665.24 437.4L666.29 435.26 665.24 162.91 665.24 437.4Z"
fill-rule="evenodd" fill="RGB(255,191,0)"/>
<path d="M666.29 435.26L666.29 164.9 665.24 162.91 666.29 435.26Z"
fill-rule="evenodd" fill="RGB(255,191,0)"/>
<path d="M666.29 435.26L670.07 427.65 666.29 164.9 666.29 435.26Z"
fill-rule="evenodd" fill="RGB(255,191,0)"/>
<path d="M670.07 427.65L670.07 172.67 666.29 164.9 670.07 427.65Z"
fill-rule="evenodd" fill="RGB(255,191,0)"/>
<path d="M670.07 427.65L671.05 425.46 670.07 172.67 670.07 427.65Z"
fill-rule="evenodd" fill="RGB(255,191,0)"/>
<path d="M671.05 425.46L671.05 174.69 670.07 172.67 671.05 425.46Z"
fill-rule="evenodd" fill="RGB(255,191,0)"/>
<path d="M671.05 425.46L674.54 417.72 671.05 174.69 671.05 425.46Z"
fill-rule="evenodd" fill="RGB(255,191,0)"/>
<path d="M674.54 417.72L674.54 182.6 671.05 174.69 674.54 417.72Z"
fill-rule="evenodd" fill="RGB(255,191,0)"/>
<path d="M674.54 417.72L675.44 415.5 674.54 182.6 674.54 417.72Z"
fill-rule="evenodd" fill="RGB(255,191,0)"/>
<path d="M675.44 415.5L675.44 184.65 674.54 182.6 675.44 415.5Z"
fill-rule="evenodd" fill="RGB(255,191,0)"/>
<path d="M675.44 415.5L678.64 407.64 675.44 184.65 675.44 415.5Z"
fill-rule="evenodd" fill="RGB(255,191,0)"/>
<path d="M678.64 407.64L678.64 192.69 675.44 184.65 678.64 407.64Z"
fill-rule="evenodd" fill="RGB(255,191,0)"/>
<path d="M678.64 407.64L679.47 405.38 678.64 192.69 678.64 407.64Z"
fill-rule="evenodd" fill="RGB(255,191,0)"/>
<path d="M679.47 405.38L679.47 194.76 678.64 192.69 679.47 405.38Z"
fill-rule="evenodd" fill="RGB(255,191,0)"/>
<path d="M679.47 405.38L682.38 397.42 679.47 194.76 679.47 405.38Z"
fill-rule="evenodd" fill="RGB(255,191,0)"/>
<path d="M682.38 397.42L682.38 202.92 679.47 194.76 682.38 397.42Z"
fill-rule="evenodd" fill="RGB(255,191,0)"/>
<path d="M682.38 397.42L683.12 395.12 682.38 202.92 682.38 397.42Z"
fill-rule="evenodd" fill="RGB(255,191,0)"/>
<path d="M683.12 395.12L683.12 205.01 682.38 202.92 683.12 395.12Z"
fill-rule="evenodd" fill="RGB(255,191,0)"/>
<path d="M683.12 395.12L685.74 387.07 683.12 205.01 683.12 395.12Z"
fill-rule="evenodd" fill="RGB(255,191,0)"/>
<path d="M685.74 387.07L685.74 213.28 683.12 205.01 685.74 387.07Z"
fill-rule="evenodd" fill="RGB(255,191,0)"/>
<path d="M685.74 387.07L686.4 384.73 685.74 213.28 685.74 387.07Z"
fill-rule="evenodd" fill="RGB(255,191,0)"/>
<path d="M686.4 384.73L686.4 215.39 685.74 213.28 686.4 384.73Z"
fill-rule="evenodd" fill="RGB(255,191,0)"/>
<path d="M686.4 384.73L688.72 376.6 686.4 215.39 686.4 384.73Z"
fill-rule="evenodd" fill="RGB(255,191,0)"/>
<path d="M688.72 376.6L688.72 223.76 686.4 215.39 688.72 376.6Z"
fill-rule="evenodd" fill="RGB(255,191,0)"/>
<path d="M688.72 376.6L689.3 374.22 688.72 223.76 688.72 376.6Z"
fill-rule="evenodd" fill="RGB(255,191,0)"/>
<path d="M689.3 374.22L689.3 225.88 688.72 223.76 689.3 374.22Z"
fill-rule="evenodd" fill="RGB(255,191,0)"/>
<path d="M689.3 374.22L691.32 366.03 689.3 225.88 689.3 374.22Z"
fill-rule="evenodd" fill="RGB(255,191,0)"/>
<path d="M691.32 366.03L691.32 234.35 689.3 225.88 691.32 366.03Z"
fill-rule="evenodd" fill="RGB(255,191,0)"/>
<path d="M691.32 366.03L691.82 363.61 691.32 234.35 691.32 366.03Z"
fill-rule="evenodd" fill="RGB(255,191,0)"/>
<path d="M691.82 363.61L691.82 236.47 691.32 234.35 691.82 363.61Z"
fill-rule="evenodd" fill="RGB(255,191,0)"/>
<path d="M691.82 363.61L693.53 355.38 691.82 236.47 691.82 363.61Z"
fill-rule="evenodd" fill="RGB(255,191,0)"/>
<path d="M693.53 355.38L693.53 245.03 691.82 236.47 693.53 355.38Z"
fill-rule="evenodd" fill="RGB(255,191,0)"/>
<path d="M693.53 355.38L693.95 352.9 693.53 245.03 693.53 355.38Z"
fill-rule="evenodd" fill="RGB(255,191,0)"/>
<path d="M693.95 352.9L693.95 247.14 693.53 245.03 693.95 352.9Z"
fill-rule="evenodd" fill="RGB(255,191,0)"/>
<path d="M693.95 352.9L695.35 344.65 693.95 247.14 693.95 352.9Z"
fill-rule="evenodd" fill="RGB(255,191,0)"/>
<path d="M695.35 344.65L695.35 255.8 693.95 247.14 695.35 344.65Z"
fill-rule="evenodd" fill="RGB(255,191,0)"/>
<path d="M695.35 344.65L695.68 342.1 695.35 255.8 695.35 344.65Z"
fill-rule="evenodd" fill="RGB(255,191,0)"/>
<path d="M695.68 342.1L695.68 257.89 695.35 255.8 695.68 342.1Z"
fill-rule="evenodd" fill="RGB(255,191,0)"/>
<path d="M695.68 342.1L696.77 333.86 695.68 257.89 695.68 342.1Z"
fill-rule="evenodd" fill="RGB(255,191,0)"/>
<path d="M696.77 333.86L696.77 266.65 695.68 257.89 696.77 333.86Z"
fill-rule="evenodd" fill="RGB(255,191,0)"/>
<path d="M696.77 333.86L697.03 331.2 696.77 266.65 696.77 333.86Z"
fill-rule="evenodd" fill="RGB(255,191,0)"/>
<path d="M697.03 331.2L697.03 268.69 696.77 266.65 697.03 331.2Z"
fill-rule="evenodd" fill="RGB(255,191,0)"/>
<path d="M697.03 331.2L697.81 323.02 697.03 268.69 697.03 331.2Z"
fill-rule="evenodd" fill="RGB(255,191,0)"/>
<path d="M697.81 323.02L697.81 277.6 697.03 268.69 697.81 323.02Z"
fill-rule="evenodd" fill="RGB(255,191,0)"/>
<path d="M697.81 323.02L697.97 320.14 697.81 277.6 697.81 323.02Z"
fill-rule="evenodd" fill="RGB(255,191,0)"/>
<path d="M697.97 320.14L697.97 279.53 697.81 277.6 697.97 320.14Z"
fill-rule="evenodd" fill="RGB(255,191,0)"/>
<path d="M697.97 320.14L698.44 312.16 697.97 279.53 697.97 320.14Z"
fill-rule="evenodd" fill="RGB(255,191,0)"/>
<path d="M698.44 312.16L698.44 288.74 697.97 279.53 698.44 312.16Z"
fill-rule="evenodd" fill="RGB(255,191,0)"/>
<path d="M698.44 312.16L698.53 308.34 698.44 288.74 698.44 312.16Z"
fill-rule="evenodd" fill="RGB(255,191,0)"/>
<path d="M698.53 308.34L698.53 290.4 698.44 288.74 698.53 308.34Z"
fill-rule="evenodd" fill="RGB(255,191,0)"/>
<path d="M698.53 308.34L698.68 301.28 698.53 290.4 698.53 308.34Z"
fill-rule="evenodd" fill="RGB(255,191,0)"/>
<path d="M102.03 310.02L102.03 289.59 101.84 300.47 102.03 310.02Z"
fill-rule="evenodd" fill="RGB(255,191,0)"/>
<path d="M102.03 310.02L102.05 311.36 102.03 289.59 102.03 310.02Z"
fill-rule="evenodd" fill="RGB(255,191,0)"/>
<path d="M102.05 311.36L102.05 289.11 102.03 289.59 102.05 311.36Z"
fill-rule="evenodd" fill="RGB(255,191,0)"/>
<path d="M102.05 311.36L102.61 321.3 102.05 289.11 102.05 311.36Z"
fill-rule="evenodd" fill="RGB(255,191,0)"/>
<path d="M102.61 321.3L102.61 278.73 102.05 289.11 102.61 321.3Z"
fill-rule="evenodd" fill="RGB(255,191,0)"/>
<path d="M102.61 321.3L102.66 322.22 102.61 278.73 102.61 321.3Z"
fill-rule="evenodd" fill="RGB(255,191,0)"/>
<path d="M102.66 322.22L102.66 278.15 102.61 278.73 102.66 322.22Z"
fill-rule="evenodd" fill="RGB(255,191,0)"/>
<path d="M102.66 322.22L103.59 332.22 102.66 278.15 102.66 322.22Z"
fill-rule="evenodd" fill="RGB(255,191,0)"/>
<path d="M103.59 332.22L103.59 267.89 102.66 278.15 103.59 332.22Z"
fill-rule="evenodd" fill="RGB(255,191,0)"/>
<path d="M103.59 332.22L103.66 333.06 103.59 267.89 103.59 332.22Z"
fill-rule="evenodd" fill="RGB(255,191,0)"/>
<path d="M103.66 333.06L103.66 267.28 103.59 267.89 103.66 333.06Z"
fill-rule="evenodd" fill="RGB(255,191,0)"/>
<path d="M103.66 333.06L104.96 343.06 103.66 267.28 103.66 333.06Z"
fill-rule="evenodd" fill="RGB(255,191,0)"/>
<path d="M104.96 343.06L104.96 257.09 103.66 267.28 104.96 343.06Z"
fill-rule="evenodd" fill="RGB(255,191,0)"/>
<path d="M104.96 343.06L105.06 343.85 104.96 257.09 104.96 343.06Z"
fill-rule="evenodd" fill="RGB(255,191,0)"/>
<path d="M105.06 343.85L105.06 256.46 104.96 257.09 105.06 343.85Z"
fill-rule="evenodd" fill="RGB(255,191,0)"/>
<path d="M105.06 343.85L106.72 353.82 105.06 256.46 105.06 343.85Z"
fill-rule="evenodd" fill="RGB(255,191,0)"/>
<path d="M106.72 353.82L106.72 246.35 105.06 256.46 106.72 353.82Z"
fill-rule="evenodd" fill="RGB(255,191,0)"/>
<path d="M106.72 353.82L106.85 354.59 106.72 246.35 106.72 353.82Z"
fill-rule="evenodd" fill="RGB(255,191,0)"/>
<path d="M106.85 354.59L106.85 245.71 106.72 246.35 106.85 354.59Z"
fill-rule="evenodd" fill="RGB(255,191,0)"/>
<path d="M106.85 354.59L108.88 364.5 106.85 245.71 106.85 354.59Z"
fill-rule="evenodd" fill="RGB(255,191,0)"/>
<path d="M108.88 364.5L108.88 235.68 106.85 245.71 108.88 364.5Z"
fill-rule="evenodd" fill="RGB(255,191,0)"/>
<path d="M108.88 364.5L109.03 365.25 108.88 235.68 108.88 364.5Z"
fill-rule="evenodd" fill="RGB(255,191,0)"/>
<path d="M109.03 365.25L109.03 235.04 108.88 235.68 109.03 365.25Z"
fill-rule="evenodd" fill="RGB(255,191,0)"/>
<path d="M109.03 365.25L111.42 375.09 109.03 235.04 109.03 365.25Z"
fill-rule="evenodd" fill="RGB(255,191,0)"/>
<path d="M111.42 375.09L111.42 225.1 109.03 235.04 111.42 375.09Z"
fill-rule="evenodd" fill="RGB(255,191,0)"/>
<path d="M111.42 375.09L111.6 375.83 111.42 225.1 111.42 375.09Z"
fill-rule="evenodd" fill="RGB(255,191,0)"/>
<path d="M111.6 375.83L111.6 224.46 111.42 225.1 111.6 375.83Z"
fill-rule="evenodd" fill="RGB(255,191,0)"/>
<path d="M111.6 375.83L114.35 385.58 111.6 224.46 111.6 375.83Z"
fill-rule="evenodd" fill="RGB(255,191,0)"/>
<path d="M114.35 385.58L114.35 214.62 111.6 224.46 114.35 385.58Z"
fill-rule="evenodd" fill="RGB(255,191,0)"/>
<path d="M114.35 385.58L114.55 386.3 114.35 214.62 114.35 385.58Z"
fill-rule="evenodd" fill="RGB(255,191,0)"/>
<path d="M114.55 386.3L114.55 213.98 114.35 214.62 114.55 386.3Z"
fill-rule="evenodd" fill="RGB(255,191,0)"/>
<path d="M114.55 386.3L117.66 395.95 114.55 213.98 114.55 386.3Z"
fill-rule="evenodd" fill="RGB(255,191,0)"/>
<path d="M117.66 395.95L117.66 204.25 114.55 213.98 117.66 395.95Z"
fill-rule="evenodd" fill="RGB(255,191,0)"/>
<path d="M117.66 395.95L117.89 396.66 117.66 204.25 117.66 395.95Z"
fill-rule="evenodd" fill="RGB(255,191,0)"/>
<path d="M117.89 396.66L117.89 203.61 117.66 204.25 117.89 396.66Z"
fill-rule="evenodd" fill="RGB(255,191,0)"/>
<path d="M117.89 396.66L121.34 406.19 117.89 203.61 117.89 396.66Z"
fill-rule="evenodd" fill="RGB(255,191,0)"/>
<path d="M121.34 406.19L121.34 194.01 117.89 203.61 121.34 406.19Z"
fill-rule="evenodd" fill="RGB(255,191,0)"/>
<path d="M121.34 406.19L121.59 406.89 121.34 194.01 121.34 406.19Z"
fill-rule="evenodd" fill="RGB(255,191,0)"/>
<path d="M121.59 406.89L121.59 193.38 121.34 194.01 121.59 406.89Z"
fill-rule="evenodd" fill="RGB(255,191,0)"/>
<path d="M121.59 406.89L125.4 416.3 121.59 193.38 121.59 406.89Z"
fill-rule="evenodd" fill="RGB(255,191,0)"/>
<path d="M125.4 416.3L125.4 183.91 121.59 193.38 125.4 416.3Z"
fill-rule="evenodd" fill="RGB(255,191,0)"/>
<path d="M125.4 416.3L125.67 416.98 125.4 183.91 125.4 416.3Z"
fill-rule="evenodd" fill="RGB(255,191,0)"/>
<path d="M125.67 416.98L125.67 183.29 125.4 183.91 125.67 416.98Z"
fill-rule="evenodd" fill="RGB(255,191,0)"/>
<path d="M125.67 416.98L129.82 426.25 125.67 183.29 125.67 416.98Z"
fill-rule="evenodd" fill="RGB(255,191,0)"/>
<path d="M129.82 426.25L129.82 173.97 125.67 183.29 129.82 426.25Z"
fill-rule="evenodd" fill="RGB(255,191,0)"/>
<path d="M129.82 426.25L130.12 426.92 129.82 173.97 129.82 426.25Z"
fill-rule="evenodd" fill="RGB(255,191,0)"/>
<path d="M130.12 426.92L130.12 173.35 129.82 173.97 130.12 426.92Z"
fill-rule="evenodd" fill="RGB(255,191,0)"/>
<path d="M130.12 426.92L134.6 436.02 130.12 173.35 130.12 426.92Z"
fill-rule="evenodd" fill="RGB(255,191,0)"/>
<path d="M134.6 436.02L134.6 164.19 130.12 173.35 134.6 436.02Z"
fill-rule="evenodd" fill="RGB(255,191,0)"/>
<path d="M134.6 436.02L134.92 436.68 134.6 164.19 134.6 436.02Z"
fill-rule="evenodd" fill="RGB(255,191,0)"/>
<path d="M134.92 436.68L134.92 163.58 134.6 164.19 134.92 436.68Z"
fill-rule="evenodd" fill="RGB(255,191,0)"/>
<path d="M134.92 436.68L139.73 445.62 134.92 163.58 134.92 436.68Z"
fill-rule="evenodd" fill="RGB(255,191,0)"/>
<path d="M139.73 445.62L139.73 154.59 134.92 163.58 139.73 445.62Z"
fill-rule="evenodd" fill="RGB(255,191,0)"/>
<path d="M139.73 445.62L140.08 446.27 139.73 346.27 139.73 445.62Z"
fill-rule="evenodd" fill="RGB(255,191,0)"/>
<path d="M140.08 446.27L140.08 346.62 139.73 346.27 140.08 446.27Z"
fill-rule="evenodd" fill="RGB(255,191,0)"/>
<path d="M140.08 446.27L145.58 455.66 140.08 346.62 140.08 446.27Z"
fill-rule="evenodd" fill="RGB(255,191,0)"/>
<path d="M145.58 455.66L145.58 352.12 140.08 346.62 145.58 455.66Z"
fill-rule="evenodd" fill="RGB(255,191,0)"/>
<path d="M145.58 455.66L151.42 464.84 145.58 352.12 145.58 455.66Z"
fill-rule="evenodd" fill="RGB(255,191,0)"/>
<path d="M151.42 464.84L151.42 357.96 145.58 352.12 151.42 464.84Z"
fill-rule="evenodd" fill="RGB(255,191,0)"/>
<path d="M151.42 464.84L157.59 473.81 151.42 357.96 151.42 464.84Z"
fill-rule="evenodd" fill="RGB(255,191,0)"/>
<path d="M157.59 473.81L157.59 364.13 151.42 357.96 157.59 473.81Z"
fill-rule="evenodd" fill="RGB(255,191,0)"/>
<path d="M157.59 473.81L164.08 482.54 157.59 364.13 157.59 473.81Z"
fill-rule="evenodd" fill="RGB(255,191,0)"/>
<path d="M164.08 482.54L164.08 370.63 157.59 364.13 164.08 482.54Z"
fill-rule="evenodd" fill="RGB(255,191,0)"/>
<path d="M164.08 482.54L170.89 491.03 164.08 370.63 164.08 482.54Z"
fill-rule="evenodd" fill="RGB(255,191,0)"/>
<path d="M170.89 491.03L170.89 377.43 164.08 370.63 170.89 491.03Z"
fill-rule="evenodd" fill="RGB(255,191,0)"/>
<path d="M170.89 491.03L178.01 499.27 170.89 377.43 170.89 491.03Z"
fill-rule="evenodd" fill="RGB(255,191,0)"/>
<path d="M178.01 499.27L178.01 384.55 170.89 377.43 178.01 499.27Z"
fill-rule="evenodd" fill="RGB(255,191,0)"/>
<path d="M178.01 499.27L180.26 501.69 178.01 384.55 178.01 499.27Z"
fill-rule="evenodd" fill="RGB(255,191,0)"/>
<path d="M180.26 501.69L180.26 386.8 178.01 384.55 180.26 501.69Z"
fill-rule="evenodd" fill="RGB(255,191,0)"/>
<path d="M180.26 501.69L185.42 507.24 180.26 386.8 180.26 501.69Z"
fill-rule="evenodd" fill="RGB(255,191,0)"/>
<path d="M185.42 507.24L185.42 386.8 180.26 386.8 185.42 507.24Z"
fill-rule="evenodd" fill="RGB(255,191,0)"/>
<path d="M185.42 507.24L193.11 514.93 185.42 386.8 185.42 507.24Z"
fill-rule="evenodd" fill="RGB(255,191,0)"/>
<path d="M193.11 514.93L193.11 386.8 185.42 386.8 193.11 514.93Z"
fill-rule="evenodd" fill="RGB(255,191,0)"/>
<path d="M193.11 514.93L201.08 522.34 193.11 386.8 193.11 514.93Z"
fill-rule="evenodd" fill="RGB(255,191,0)"/>
<path d="M201.08 522.34L201.08 386.8 193.11 386.8 201.08 522.34Z"
fill-rule="evenodd" fill="RGB(255,191,0)"/>
<path d="M201.08 522.34L209.32 529.46 201.08 386.8 201.08 522.34Z"
fill-rule="evenodd" fill="RGB(255,191,0)"/>
<path d="M209.32 529.46L209.32 386.8 201.08 386.8 209.32 529.46Z"
fill-rule="evenodd" fill="RGB(255,191,0)"/>
<path d="M209.32 529.46L217.81 536.27 209.32 386.8 209.32 529.46Z"
fill-rule="evenodd" fill="RGB(255,191,0)"/>
<path d="M217.81 536.27L217.81 386.8 209.32 386.8 217.81 536.27Z"
fill-rule="evenodd" fill="RGB(255,191,0)"/>
<path d="M217.81 536.27L219.65 537.64 217.81 386.8 217.81 536.27Z"
fill-rule="evenodd" fill="RGB(255,191,0)"/>
<path d="M219.65 537.64L219.65 386.8 217.81 386.8 219.65 537.64Z"
fill-rule="evenodd" fill="RGB(255,191,0)"/>
<path d="M219.65 537.64L226.54 542.76 219.65 386.8 219.65 537.64Z"
fill-rule="evenodd" fill="RGB(255,191,0)"/>
<path d="M226.54 542.76L226.54 386.8 219.65 386.8 226.54 542.76Z"
fill-rule="evenodd" fill="RGB(255,191,0)"/>
<path d="M226.54 62.56L226.54 57.52 219.65 62.56 226.54 62.56Z"
fill-rule="evenodd" fill="RGB(255,191,0)"/>
<path d="M226.54 542.76L228.43 544.07 226.54 386.8 226.54 542.76Z"
fill-rule="evenodd" fill="RGB(255,191,0)"/>
<path d="M228.43 544.07L228.43 386.8 226.54 386.8 228.43 544.07Z"
fill-rule="evenodd" fill="RGB(255,191,0)"/>
<path d="M226.54 62.56L228.43 62.56 226.54 57.52 226.54 62.56Z"
fill-rule="evenodd" fill="RGB(255,191,0)"/>
<path d="M228.43 62.56L228.43 56.13 226.54 57.52 228.43 62.56Z"
fill-rule="evenodd" fill="RGB(255,191,0)"/>
<path d="M228.43 544.07L235.5 548.94 228.43 386.8 228.43 544.07Z"
fill-rule="evenodd" fill="RGB(255,191,0)"/>
<path d="M235.5 548.94L235.5 386.8 228.43 386.8 235.5 548.94Z"
fill-rule="evenodd" fill="RGB(255,191,0)"/>
<path d="M228.43 62.56L235.5 62.56 228.43 56.13 228.43 62.56Z"
fill-rule="evenodd" fill="RGB(255,191,0)"/>
<path d="M235.5 62.56L235.5 51.34 228.43 56.13 235.5 62.56Z"
fill-rule="evenodd" fill="RGB(255,191,0)"/>
<path d="M235.5 548.94L237.44 550.17 235.5 386.8 235.5 548.94Z"
fill-rule="evenodd" fill="RGB(255,191,0)"/>
<path d="M237.44 550.17L237.44 386.8 235.5 386.8 237.44 550.17Z"
fill-rule="evenodd" fill="RGB(255,191,0)"/>
<path d="M235.5 62.56L237.44 62.56 235.5 51.34 235.5 62.56Z"
fill-rule="evenodd" fill="RGB(255,191,0)"/>
<path d="M237.44 62.56L237.44 50.03 235.5 51.34 237.44 62.56Z"
fill-rule="evenodd" fill="RGB(255,191,0)"/>
<path d="M237.44 550.17L244.68 554.78 237.44 386.8 237.44 550.17Z"
fill-rule="evenodd" fill="RGB(255,191,0)"/>
<path d="M244.68 554.78L244.68 386.8 237.44 386.8 244.68 554.78Z"
fill-rule="evenodd" fill="RGB(255,191,0)"/>
<path d="M237.44 62.56L244.68 62.56 237.44 50.03 237.44 62.56Z"
fill-rule="evenodd" fill="RGB(255,191,0)"/>
<path d="M244.68 62.56L244.68 45.5 237.44 50.03 244.68 62.56Z"
fill-rule="evenodd" fill="RGB(255,191,0)"/>
<path d="M244.68 554.78L246.67 555.94 244.68 386.8 244.68 554.78Z"
fill-rule="evenodd" fill="RGB(255,191,0)"/>
<path d="M246.67 555.94L246.67 386.8 244.68 386.8 246.67 555.94Z"
fill-rule="evenodd" fill="RGB(255,191,0)"/>
<path d="M244.68 62.56L246.67 62.56 244.68 45.5 244.68 62.56Z"
fill-rule="evenodd" fill="RGB(255,191,0)"/>
<path d="M246.67 62.56L246.67 44.26 244.68 45.5 246.67 62.56Z"
fill-rule="evenodd" fill="RGB(255,191,0)"/>
<path d="M246.67 555.94L254.07 560.28 246.67 386.8 246.67 555.94Z"
fill-rule="evenodd" fill="RGB(255,191,0)"/>
<path d="M254.07 560.28L254.07 386.8 246.67 386.8 254.07 560.28Z"
fill-rule="evenodd" fill="RGB(255,191,0)"/>
<path d="M246.67 62.56L254.07 62.56 246.67 44.26 246.67 62.56Z"
fill-rule="evenodd" fill="RGB(255,191,0)"/>
<path d="M254.07 62.56L254.07 39.99 246.67 44.26 254.07 62.56Z"
fill-rule="evenodd" fill="RGB(255,191,0)"/>
<path d="M254.07 560.28L256.1 561.37 254.07 386.8 254.07 560.28Z"
fill-rule="evenodd" fill="RGB(255,191,0)"/>
<path d="M256.1 561.37L256.1 386.8 254.07 386.8 256.1 561.37Z"
fill-rule="evenodd" fill="RGB(255,191,0)"/>
<path d="M254.07 62.56L256.1 62.56 254.07 39.99 254.07 62.56Z"
fill-rule="evenodd" fill="RGB(255,191,0)"/>
<path d="M256.1 62.56L256.1 38.83 254.07 39.99 256.1 62.56Z"
fill-rule="evenodd" fill="RGB(255,191,0)"/>
<path d="M256.1 561.37L263.66 565.44 256.1 386.8 256.1 561.37Z"
fill-rule="evenodd" fill="RGB(255,191,0)"/>
<path d="M263.66 565.44L263.66 386.8 256.1 386.8 263.66 565.44Z"
fill-rule="evenodd" fill="RGB(255,191,0)"/>
<path d="M256.1 62.56L263.66 62.56 256.1 38.83 256.1 62.56Z"
fill-rule="evenodd" fill="RGB(255,191,0)"/>
<path d="M263.66 62.56L263.66 34.84 256.1 38.83 263.66 62.56Z"
fill-rule="evenodd" fill="RGB(255,191,0)"/>
<path d="M263.66 565.44L265.72 566.46 263.66 386.8 263.66 565.44Z"
fill-rule="evenodd" fill="RGB(255,191,0)"/>
<path d="M265.72 566.46L265.72 386.8 263.66 386.8 265.72 566.46Z"
fill-rule="evenodd" fill="RGB(255,191,0)"/>
<path d="M263.66 62.56L265.72 62.56 263.66 34.84 263.66 62.56Z"
fill-rule="evenodd" fill="RGB(255,191,0)"/>
<path d="M265.72 62.56L265.72 33.75 263.66 34.84 265.72 62.56Z"
fill-rule="evenodd" fill="RGB(255,191,0)"/>
<path d="M265.72 566.46L273.42 570.25 265.72 386.8 265.72 566.46Z"
fill-rule="evenodd" fill="RGB(255,191,0)"/>
<path d="M273.42 570.25L273.42 386.8 265.72 386.8 273.42 570.25Z"
fill-rule="evenodd" fill="RGB(255,191,0)"/>
<path d="M265.72 62.56L273.42 62.56 265.72 33.75 265.72 62.56Z"
fill-rule="evenodd" fill="RGB(255,191,0)"/>
<path d="M273.42 62.56L273.42 30.03 265.72 33.75 273.42 62.56Z"
fill-rule="evenodd" fill="RGB(255,191,0)"/>
<path d="M273.42 570.25L275.52 571.19 273.42 386.8 273.42 570.25Z"
fill-rule="evenodd" fill="RGB(255,191,0)"/>
<path d="M275.52 571.19L275.52 386.8 273.42 386.8 275.52 571.19Z"
fill-rule="evenodd" fill="RGB(255,191,0)"/>
<path d="M273.42 62.56L275.52 62.56 273.42 30.03 273.42 62.56Z"
fill-rule="evenodd" fill="RGB(255,191,0)"/>
<path d="M275.52 62.56L275.52 29.02 273.42 30.03 275.52 62.56Z"
fill-rule="evenodd" fill="RGB(255,191,0)"/>
<path d="M275.52 571.19L283.36 574.69 275.52 386.8 275.52 571.19Z"
fill-rule="evenodd" fill="RGB(255,191,0)"/>
<path d="M283.36 574.69L283.36 386.8 275.52 386.8 283.36 574.69Z"
fill-rule="evenodd" fill="RGB(255,191,0)"/>
<path d="M275.52 62.56L283.36 62.56 275.52 29.02 275.52 62.56Z"
fill-rule="evenodd" fill="RGB(255,191,0)"/>
<path d="M283.36 62.56L283.36 25.59 275.52 29.02 283.36 62.56Z"
fill-rule="evenodd" fill="RGB(255,191,0)"/>
<path d="M283.36 574.69L285.49 575.56 283.36 386.8 283.36 574.69Z"
fill-rule="evenodd" fill="RGB(255,191,0)"/>
<path d="M285.49 575.56L285.49 386.8 283.36 386.8 285.49 575.56Z"
fill-rule="evenodd" fill="RGB(255,191,0)"/>
<path d="M283.36 62.56L285.49 62.56 283.36 25.59 283.36 62.56Z"
fill-rule="evenodd" fill="RGB(255,191,0)"/>
<path d="M285.49 62.56L285.49 24.65 283.36 25.59 285.49 62.56Z"
fill-rule="evenodd" fill="RGB(255,191,0)"/>
<path d="M285.49 575.56L293.45 578.77 285.49 386.8 285.49 575.56Z"
fill-rule="evenodd" fill="RGB(255,191,0)"/>
<path d="M293.45 578.77L293.45 386.8 285.49 386.8 293.45 578.77Z"
fill-rule="evenodd" fill="RGB(255,191,0)"/>
<path d="M285.49 62.56L293.45 62.56 285.49 24.65 285.49 62.56Z"
fill-rule="evenodd" fill="RGB(255,191,0)"/>
<path d="M293.45 62.56L293.45 21.5 285.49 24.65 293.45 62.56Z"
fill-rule="evenodd" fill="RGB(255,191,0)"/>
<path d="M293.45 578.77L295.61 579.56 293.45 386.8 293.45 578.77Z"
fill-rule="evenodd" fill="RGB(255,191,0)"/>
<path d="M295.61 579.56L295.61 386.8 293.45 386.8 295.61 579.56Z"
fill-rule="evenodd" fill="RGB(255,191,0)"/>
<path d="M293.45 62.56L295.61 62.56 293.45 21.5 293.45 62.56Z"
fill-rule="evenodd" fill="RGB(255,191,0)"/>
<path d="M295.61 62.56L295.61 20.65 293.45 21.5 295.61 62.56Z"
fill-rule="evenodd" fill="RGB(255,191,0)"/>
<path d="M295.61 579.56L303.68 582.48 295.61 386.8 295.61 579.56Z"
fill-rule="evenodd" fill="RGB(255,191,0)"/>
<path d="M303.68 582.48L303.68 386.8 295.61 386.8 303.68 582.48Z"
fill-rule="evenodd" fill="RGB(255,191,0)"/>
<path d="M295.61 62.56L303.68 62.56 295.61 20.65 295.61 62.56Z"
fill-rule="evenodd" fill="RGB(255,191,0)"/>
<path d="M303.68 62.56L303.68 17.79 295.61 20.65 303.68 62.56Z"
fill-rule="evenodd" fill="RGB(255,191,0)"/>
<path d="M303.68 582.48L305.87 583.19 303.68 386.8 303.68 582.48Z"
fill-rule="evenodd" fill="RGB(255,191,0)"/>
<path d="M305.87 583.19L305.87 386.8 303.68 386.8 305.87 583.19Z"
fill-rule="evenodd" fill="RGB(255,191,0)"/>
<path d="M303.68 62.56L305.87 62.56 303.68 17.79 303.68 62.56Z"
fill-rule="evenodd" fill="RGB(255,191,0)"/>
<path d="M305.87 62.56L305.87 17.02 303.68 17.79 305.87 62.56Z"
fill-rule="evenodd" fill="RGB(255,191,0)"/>
<path d="M305.87 583.19L314.04 585.81 305.87 386.8 305.87 583.19Z"
fill-rule="evenodd" fill="RGB(255,191,0)"/>
<path d="M314.04 585.81L314.04 386.8 305.87 386.8 314.04 585.81Z"
fill-rule="evenodd" fill="RGB(255,191,0)"/>
<path d="M305.87 62.56L314.04 62.56 305.87 17.02 305.87 62.56Z"
fill-rule="evenodd" fill="RGB(255,191,0)"/>
<path d="M314.04 62.56L314.04 14.46 305.87 17.02 314.04 62.56Z"
fill-rule="evenodd" fill="RGB(255,191,0)"/>
<path d="M314.04 585.81L316.26 586.44 314.04 386.8 314.04 585.81Z"
fill-rule="evenodd" fill="RGB(255,191,0)"/>
<path d="M316.26 586.44L316.26 386.8 314.04 386.8 316.26 586.44Z"
fill-rule="evenodd" fill="RGB(255,191,0)"/>
<path d="M314.04 62.56L316.26 62.56 314.04 14.46 314.04 62.56Z"
fill-rule="evenodd" fill="RGB(255,191,0)"/>
<path d="M316.26 62.56L316.26 13.76 314.04 14.46 316.26 62.56Z"
fill-rule="evenodd" fill="RGB(255,191,0)"/>
<path d="M316.26 586.44L324.51 588.77 316.26 386.8 316.26 586.44Z"
fill-rule="evenodd" fill="RGB(255,191,0)"/>
<path d="M324.51 588.77L324.51 386.8 316.26 386.8 324.51 588.77Z"
fill-rule="evenodd" fill="RGB(255,191,0)"/>
<path d="M316.26 62.56L324.51 62.56 316.26 13.76 316.26 62.56Z"
fill-rule="evenodd" fill="RGB(255,191,0)"/>
<path d="M324.51 62.56L324.51 11.51 316.26 13.76 324.51 62.56Z"
fill-rule="evenodd" fill="RGB(255,191,0)"/>
<path d="M324.51 588.77L326.76 589.31 324.51 386.8 324.51 588.77Z"
fill-rule="evenodd" fill="RGB(255,191,0)"/>
<path d="M326.76 589.31L326.76 386.8 324.51 386.8 326.76 589.31Z"
fill-rule="evenodd" fill="RGB(255,191,0)"/>
<path d="M324.51 62.56L326.76 62.56 324.51 11.51 324.51 62.56Z"
fill-rule="evenodd" fill="RGB(255,191,0)"/>
<path d="M326.76 62.56L326.76 10.89 324.51 11.51 326.76 62.56Z"
fill-rule="evenodd" fill="RGB(255,191,0)"/>
<path d="M326.76 589.31L335.09 591.34 326.76 386.8 326.76 589.31Z"
fill-rule="evenodd" fill="RGB(255,191,0)"/>
<path d="M335.09 591.34L335.09 386.8 326.76 386.8 335.09 591.34Z"
fill-rule="evenodd" fill="RGB(255,191,0)"/>
<path d="M326.76 62.56L335.09 62.56 326.76 10.89 326.76 62.56Z"
fill-rule="evenodd" fill="RGB(255,191,0)"/>
<path d="M335.09 62.56L335.09 8.94 326.76 10.89 335.09 62.56Z"
fill-rule="evenodd" fill="RGB(255,191,0)"/>
<path d="M335.09 591.34L337.35 591.8 335.09 386.8 335.09 591.34Z"
fill-rule="evenodd" fill="RGB(255,191,0)"/>
<path d="M337.35 591.8L337.35 386.8 335.09 386.8 337.35 591.8Z"
fill-rule="evenodd" fill="RGB(255,191,0)"/>
<path d="M335.09 62.56L337.35 62.56 335.09 8.94 335.09 62.56Z"
fill-rule="evenodd" fill="RGB(255,191,0)"/>
<path d="M337.35 62.56L337.35 8.4 335.09 8.94 337.35 62.56Z"
fill-rule="evenodd" fill="RGB(255,191,0)"/>
<path d="M337.35 591.8L345.75 593.52 337.35 386.8 337.35 591.8Z"
fill-rule="evenodd" fill="RGB(255,191,0)"/>
<path d="M345.75 593.52L345.75 386.8 337.35 386.8 345.75 593.52Z"
fill-rule="evenodd" fill="RGB(255,191,0)"/>
<path d="M337.35 62.56L345.75 62.56 337.35 8.4 337.35 62.56Z"
fill-rule="evenodd" fill="RGB(255,191,0)"/>
<path d="M345.75 62.56L345.75 6.75 337.35 8.4 345.75 62.56Z"
fill-rule="evenodd" fill="RGB(255,191,0)"/>
<path d="M345.75 593.52L348.03 593.9 345.75 386.8 345.75 593.52Z"
fill-rule="evenodd" fill="RGB(255,191,0)"/>
<path d="M348.03 593.9L348.03 386.8 345.75 386.8 348.03 593.9Z"
fill-rule="evenodd" fill="RGB(255,191,0)"/>
<path d="M345.75 62.56L348.03 62.56 345.75 6.75 345.75 62.56Z"
fill-rule="evenodd" fill="RGB(255,191,0)"/>
<path d="M348.03 62.56L348.03 6.3 345.75 6.75 348.03 62.56Z"
fill-rule="evenodd" fill="RGB(255,191,0)"/>
<path d="M348.03 593.9L356.48 595.31 348.03 386.8 348.03 593.9Z"
fill-rule="evenodd" fill="RGB(255,191,0)"/>
<path d="M356.48 595.31L356.48 386.8 348.03 386.8 356.48 595.31Z"
fill-rule="evenodd" fill="RGB(255,191,0)"/>
<path d="M348.03 62.56L356.48 62.56 348.03 6.3 348.03 62.56Z"
fill-rule="evenodd" fill="RGB(255,191,0)"/>
<path d="M356.48 62.56L356.48 4.96 348.03 6.3 356.48 62.56Z"
fill-rule="evenodd" fill="RGB(255,191,0)"/>
<path d="M356.48 595.31L358.78 595.61 356.48 386.8 356.48 595.31Z"
fill-rule="evenodd" fill="RGB(255,191,0)"/>
<path d="M358.78 595.61L358.78 386.8 356.48 386.8 358.78 595.61Z"
fill-rule="evenodd" fill="RGB(255,191,0)"/>
<path d="M356.48 62.56L358.78 62.56 356.48 4.96 356.48 62.56Z"
fill-rule="evenodd" fill="RGB(255,191,0)"/>
<path d="M358.78 62.56L358.78 4.59 356.48 4.96 358.78 62.56Z"
fill-rule="evenodd" fill="RGB(255,191,0)"/>
<path d="M358.78 595.61L367.28 596.71 358.78 386.8 358.78 595.61Z"
fill-rule="evenodd" fill="RGB(255,191,0)"/>
<path d="M367.28 596.71L367.28 386.8 358.78 386.8 367.28 596.71Z"
fill-rule="evenodd" fill="RGB(255,191,0)"/>
<path d="M358.78 62.56L367.28 62.56 358.78 4.59 358.78 62.56Z"
fill-rule="evenodd" fill="RGB(255,191,0)"/>
<path d="M367.28 62.56L367.28 3.56 358.78 4.59 367.28 62.56Z"
fill-rule="evenodd" fill="RGB(255,191,0)"/>
<path d="M367.28 596.71L369.58 596.93 367.28 386.8 367.28 596.71Z"
fill-rule="evenodd" fill="RGB(255,191,0)"/>
<path d="M369.58 596.93L369.58 386.8 367.28 386.8 369.58 596.93Z"
fill-rule="evenodd" fill="RGB(255,191,0)"/>
<path d="M367.28 62.56L369.58 62.56 367.28 3.56 367.28 62.56Z"
fill-rule="evenodd" fill="RGB(255,191,0)"/>
<path d="M369.58 62.56L369.58 3.28 367.28 3.56 369.58 62.56Z"
fill-rule="evenodd" fill="RGB(255,191,0)"/>
<path d="M369.58 596.93L378.11 597.72 369.58 386.8 369.58 596.93Z"
fill-rule="evenodd" fill="RGB(255,191,0)"/>
<path d="M378.11 597.72L378.11 386.8 369.58 386.8 378.11 597.72Z"
fill-rule="evenodd" fill="RGB(255,191,0)"/>
<path d="M369.58 62.56L378.11 62.56 369.58 3.28 369.58 62.56Z"
fill-rule="evenodd" fill="RGB(255,191,0)"/>
<path d="M378.11 62.56L378.11 2.55 369.58 3.28 378.11 62.56Z"
fill-rule="evenodd" fill="RGB(255,191,0)"/>
<path d="M378.11 597.72L380.43 597.85 378.11 386.8 378.11 597.72Z"
fill-rule="evenodd" fill="RGB(255,191,0)"/>
<path d="M380.43 597.85L380.43 386.8 378.11 386.8 380.43 597.85Z"
fill-rule="evenodd" fill="RGB(255,191,0)"/>
<path d="M378.11 62.56L380.43 62.56 378.11 2.55 378.11 62.56Z"
fill-rule="evenodd" fill="RGB(255,191,0)"/>
<path d="M380.43 62.56L380.43 2.36 378.11 2.55 380.43 62.56Z"
fill-rule="evenodd" fill="RGB(255,191,0)"/>
<path d="M380.43 597.85L388.98 598.33 380.43 386.8 380.43 597.85Z"
fill-rule="evenodd" fill="RGB(255,191,0)"/>
<path d="M388.98 598.33L388.98 386.8 380.43 386.8 388.98 598.33Z"
fill-rule="evenodd" fill="RGB(255,191,0)"/>
<path d="M380.43 62.56L388.98 62.56 380.43 2.36 380.43 62.56Z"
fill-rule="evenodd" fill="RGB(255,191,0)"/>
<path d="M388.98 62.56L388.98 1.94 380.43 2.36 388.98 62.56Z"
fill-rule="evenodd" fill="RGB(255,191,0)"/>
<path d="M388.98 598.33L391.3 598.38 388.98 386.8 388.98 598.33Z"
fill-rule="evenodd" fill="RGB(255,191,0)"/>
<path d="M391.3 598.38L391.3 386.8 388.98 386.8 391.3 598.38Z"
fill-rule="evenodd" fill="RGB(255,191,0)"/>
<path d="M388.98 62.56L391.3 62.56 388.98 1.94 388.98 62.56Z"
fill-rule="evenodd" fill="RGB(255,191,0)"/>
<path d="M391.3 62.56L391.3 1.83 388.98 1.94 391.3 62.56Z"
fill-rule="evenodd" fill="RGB(255,191,0)"/>
<path d="M391.3 598.38L399.86 598.54 391.3 386.8 391.3 598.38Z"
fill-rule="evenodd" fill="RGB(255,191,0)"/>
<path d="M399.86 598.54L399.86 386.8 391.3 386.8 399.86 598.54Z"
fill-rule="evenodd" fill="RGB(255,191,0)"/>
<path d="M391.3 62.56L399.86 62.56 391.3 1.83 391.3 62.56Z"
fill-rule="evenodd" fill="RGB(255,191,0)"/>
<path d="M399.86 62.56L399.86 1.73 391.3 1.83 399.86 62.56Z"
fill-rule="evenodd" fill="RGB(255,191,0)"/>
<path d="M399.86 598.54L402.18 598.5 399.86 386.8 399.86 598.54Z"
fill-rule="evenodd" fill="RGB(255,191,0)"/>
<path d="M402.18 598.5L402.18 386.8 399.86 386.8 402.18 598.5Z"
fill-rule="evenodd" fill="RGB(255,191,0)"/>
<path d="M399.86 62.56L402.18 62.56 399.86 1.73 399.86 62.56Z"
fill-rule="evenodd" fill="RGB(255,191,0)"/>
<path d="M402.18 62.56L402.18 1.7 399.86 1.73 402.18 62.56Z"
fill-rule="evenodd" fill="RGB(255,191,0)"/>
<path d="M402.18 598.5L410.74 598.36 402.18 386.8 402.18 598.5Z"
fill-rule="evenodd" fill="RGB(255,191,0)"/>
<path d="M410.74 598.36L410.74 386.8 402.18 386.8 410.74 598.36Z"
fill-rule="evenodd" fill="RGB(255,191,0)"/>
<path d="M402.18 62.56L410.74 62.56 402.18 1.7 402.18 62.56Z"
fill-rule="evenodd" fill="RGB(255,191,0)"/>
<path d="M410.74 62.56L410.74 1.91 402.18 1.7 410.74 62.56Z"
fill-rule="evenodd" fill="RGB(255,191,0)"/>
<path d="M410.74 598.36L413.06 598.24 410.74 386.8 410.74 598.36Z"
fill-rule="evenodd" fill="RGB(255,191,0)"/>
<path d="M413.06 598.24L413.06 386.8 410.74 386.8 413.06 598.24Z"
fill-rule="evenodd" fill="RGB(255,191,0)"/>
<path d="M410.74 62.56L413.06 62.56 410.74 1.91 410.74 62.56Z"
fill-rule="evenodd" fill="RGB(255,191,0)"/>
<path d="M413.06 62.56L413.06 1.97 410.74 1.91 413.06 62.56Z"
fill-rule="evenodd" fill="RGB(255,191,0)"/>
<path d="M413.06 598.24L421.61 597.78 413.06 386.8 413.06 598.24Z"
fill-rule="evenodd" fill="RGB(255,191,0)"/>
<path d="M421.61 597.78L421.61 386.8 413.06 386.8 421.61 597.78Z"
fill-rule="evenodd" fill="RGB(255,191,0)"/>
<path d="M413.06 62.56L421.61 62.56 413.06 1.97 413.06 62.56Z"
fill-rule="evenodd" fill="RGB(255,191,0)"/>
<path d="M421.61 62.56L421.61 2.49 413.06 1.97 421.61 62.56Z"
fill-rule="evenodd" fill="RGB(255,191,0)"/>
<path d="M421.61 597.78L423.44 597.61 421.61 386.8 421.61 597.78Z"
fill-rule="evenodd" fill="RGB(255,191,0)"/>
<path d="M423.44 597.61L423.44 386.8 421.61 386.8 423.44 597.61Z"
fill-rule="evenodd" fill="RGB(255,191,0)"/>
<path d="M421.61 62.56L423.44 62.56 421.61 2.49 421.61 62.56Z"
fill-rule="evenodd" fill="RGB(255,191,0)"/>
<path d="M423.44 62.56L423.44 2.61 421.61 2.49 423.44 62.56Z"
fill-rule="evenodd" fill="RGB(255,191,0)"/>
<path d="M423.44 597.61L423.92 597.57 423.44 386.8 423.44 597.61Z"
fill-rule="evenodd" fill="RGB(255,191,0)"/>
<path d="M423.92 597.57L423.92 386.32 423.44 386.8 423.92 597.57Z"
fill-rule="evenodd" fill="RGB(255,191,0)"/>
<path d="M423.44 62.56L423.92 63.04 423.44 2.61 423.44 62.56Z"
fill-rule="evenodd" fill="RGB(255,191,0)"/>
<path d="M423.92 63.04L423.92 2.64 423.44 2.61 423.92 63.04Z"
fill-rule="evenodd" fill="RGB(255,191,0)"/>
<path d="M423.92 597.57L432.45 596.8 423.92 386.32 423.92 597.57Z"
fill-rule="evenodd" fill="RGB(255,191,0)"/>
<path d="M432.45 596.8L432.45 377.79 423.92 386.32 432.45 596.8Z"
fill-rule="evenodd" fill="RGB(255,191,0)"/>
<path d="M423.92 63.04L432.45 71.57 423.92 2.64 423.92 63.04Z"
fill-rule="evenodd" fill="RGB(255,191,0)"/>
<path d="M432.45 71.57L432.45 3.47 423.92 2.64 432.45 71.57Z"
fill-rule="evenodd" fill="RGB(255,191,0)"/>
<path d="M432.45 596.8L434.75 596.51 432.45 377.79 432.45 596.8Z"
fill-rule="evenodd" fill="RGB(255,191,0)"/>
<path d="M434.75 596.51L434.75 375.48 432.45 377.79 434.75 596.51Z"
fill-rule="evenodd" fill="RGB(255,191,0)"/>
<path d="M432.45 71.57L434.75 73.88 432.45 3.47 432.45 71.57Z"
fill-rule="evenodd" fill="RGB(255,191,0)"/>
<path d="M434.75 73.88L434.75 3.7 432.45 3.47 434.75 73.88Z"
fill-rule="evenodd" fill="RGB(255,191,0)"/>
<path d="M434.75 596.51L443.25 595.43 434.75 375.48 434.75 596.51Z"
fill-rule="evenodd" fill="RGB(255,191,0)"/>
<path d="M443.25 595.43L443.25 366.99 434.75 375.48 443.25 595.43Z"
fill-rule="evenodd" fill="RGB(255,191,0)"/>
<path d="M434.75 73.88L443.25 82.37 434.75 3.7 434.75 73.88Z"
fill-rule="evenodd" fill="RGB(255,191,0)"/>
<path d="M443.25 82.37L443.25 4.84 434.75 3.7 443.25 82.37Z"
fill-rule="evenodd" fill="RGB(255,191,0)"/>
<path d="M443.25 595.43L445.54 595.05 443.25 366.99 443.25 595.43Z"
fill-rule="evenodd" fill="RGB(255,191,0)"/>
<path d="M445.54 595.05L445.54 364.7 443.25 366.99 445.54 595.05Z"
fill-rule="evenodd" fill="RGB(255,191,0)"/>
<path d="M443.25 82.37L445.54 84.66 443.25 4.84 443.25 82.37Z"
fill-rule="evenodd" fill="RGB(255,191,0)"/>
<path d="M445.54 84.66L445.54 5.15 443.25 4.84 445.54 84.66Z"
fill-rule="evenodd" fill="RGB(255,191,0)"/>
<path d="M445.54 595.05L453.99 593.67 445.54 364.7 445.54 595.05Z"
fill-rule="evenodd" fill="RGB(255,191,0)"/>
<path d="M453.99 593.67L453.99 356.25 445.54 364.7 453.99 593.67Z"
fill-rule="evenodd" fill="RGB(255,191,0)"/>
<path d="M445.54 84.66L453.99 93.11 445.54 5.15 445.54 84.66Z"
fill-rule="evenodd" fill="RGB(255,191,0)"/>
<path d="M453.99 93.11L453.99 6.61 445.54 5.15 453.99 93.11Z"
fill-rule="evenodd" fill="RGB(255,191,0)"/>
<path d="M453.99 593.67L456.26 593.21 453.99 356.25 453.99 593.67Z"
fill-rule="evenodd" fill="RGB(255,191,0)"/>
<path d="M456.26 593.21L456.26 353.97 453.99 356.25 456.26 593.21Z"
fill-rule="evenodd" fill="RGB(255,191,0)"/>
<path d="M453.99 93.11L456.26 95.39 453.99 6.61 453.99 93.11Z"
fill-rule="evenodd" fill="RGB(255,191,0)"/>
<path d="M456.26 95.39L456.26 7 453.99 6.61 456.26 95.39Z"
fill-rule="evenodd" fill="RGB(255,191,0)"/>
<path d="M456.26 593.21L463.97 591.65 456.26 353.97 456.26 593.21Z"
fill-rule="evenodd" fill="RGB(255,191,0)"/>
<path d="M463.97 591.65L463.97 346.27 456.26 353.97 463.97 591.65Z"
fill-rule="evenodd" fill="RGB(255,191,0)"/>
<path d="M456.26 95.39L463.97 103.09 456.26 7 456.26 95.39Z"
fill-rule="evenodd" fill="RGB(255,191,0)"/>
<path d="M463.97 103.09L463.97 8.62 456.26 7 463.97 103.09Z"
fill-rule="evenodd" fill="RGB(255,191,0)"/>
<path d="M463.97 591.65L464.65 591.51 463.97 8.62 463.97 591.65Z"
fill-rule="evenodd" fill="RGB(255,191,0)"/>
<path d="M464.65 591.51L464.65 8.76 463.97 8.62 464.65 591.51Z"
fill-rule="evenodd" fill="RGB(255,191,0)"/>
<path d="M464.65 591.51L466.91 590.97 464.65 8.76 464.65 591.51Z"
fill-rule="evenodd" fill="RGB(255,191,0)"/>
<path d="M466.91 590.97L466.91 9.24 464.65 8.76 466.91 590.97Z"
fill-rule="evenodd" fill="RGB(255,191,0)"/>
<path d="M466.91 590.97L475.24 588.97 466.91 9.24 466.91 590.97Z"
fill-rule="evenodd" fill="RGB(255,191,0)"/>
<path d="M475.24 588.97L475.24 11.3 466.91 9.24 475.24 588.97Z"
fill-rule="evenodd" fill="RGB(255,191,0)"/>
<path d="M475.24 588.97L477.48 588.35 475.24 11.3 475.24 588.97Z"
fill-rule="evenodd" fill="RGB(255,191,0)"/>
<path d="M477.48 588.35L477.48 11.86 475.24 11.3 477.48 588.35Z"
fill-rule="evenodd" fill="RGB(255,191,0)"/>
<path d="M477.48 588.35L485.72 586.05 477.48 11.86 477.48 588.35Z"
fill-rule="evenodd" fill="RGB(255,191,0)"/>
<path d="M485.72 586.05L485.72 14.23 477.48 11.86 485.72 586.05Z"
fill-rule="evenodd" fill="RGB(255,191,0)"/>
<path d="M485.72 586.05L487.94 585.34 485.72 14.23 485.72 586.05Z"
fill-rule="evenodd" fill="RGB(255,191,0)"/>
<path d="M487.94 585.34L487.94 14.87 485.72 14.23 487.94 585.34Z"
fill-rule="evenodd" fill="RGB(255,191,0)"/>
<path d="M487.94 585.34L496.09 582.74 487.94 14.87 487.94 585.34Z"
fill-rule="evenodd" fill="RGB(255,191,0)"/>
<path d="M496.09 582.74L496.09 17.54 487.94 14.87 496.09 582.74Z"
fill-rule="evenodd" fill="RGB(255,191,0)"/>
<path d="M496.09 582.74L498.28 581.95 496.09 17.54 496.09 582.74Z"
fill-rule="evenodd" fill="RGB(255,191,0)"/>
<path d="M498.28 581.95L498.28 18.25 496.09 17.54 498.28 581.95Z"
fill-rule="evenodd" fill="RGB(255,191,0)"/>
<path d="M498.28 581.95L506.33 579.06 498.28 18.25 498.28 581.95Z"
fill-rule="evenodd" fill="RGB(255,191,0)"/>
<path d="M506.33 579.06L506.33 21.22 498.28 18.25 506.33 579.06Z"
fill-rule="evenodd" fill="RGB(255,191,0)"/>
<path d="M506.33 579.06L508.49 578.19 506.33 21.22 506.33 579.06Z"
fill-rule="evenodd" fill="RGB(255,191,0)"/>
<path d="M508.49 578.19L508.49 22.01 506.33 21.22 508.49 578.19Z"
fill-rule="evenodd" fill="RGB(255,191,0)"/>
<path d="M508.49 578.19L516.43 575.01 508.49 22.01 508.49 578.19Z"
fill-rule="evenodd" fill="RGB(255,191,0)"/>
<path d="M516.43 575.01L516.43 25.27 508.49 22.01 516.43 575.01Z"
fill-rule="evenodd" fill="RGB(255,191,0)"/>
<path d="M516.43 575.01L518.56 574.06 516.43 25.27 516.43 575.01Z"
fill-rule="evenodd" fill="RGB(255,191,0)"/>
<path d="M518.56 574.06L518.56 26.15 516.43 25.27 518.56 574.06Z"
fill-rule="evenodd" fill="RGB(255,191,0)"/>
<path d="M518.56 574.06L526.37 570.59 518.56 26.15 518.56 574.06Z"
fill-rule="evenodd" fill="RGB(255,191,0)"/>
<path d="M526.37 570.59L526.37 29.69 518.56 26.15 526.37 570.59Z"
fill-rule="evenodd" fill="RGB(255,191,0)"/>
<path d="M526.37 570.59L528.47 569.56 526.37 29.69 526.37 570.59Z"
fill-rule="evenodd" fill="RGB(255,191,0)"/>
<path d="M528.47 569.56L528.47 30.64 526.37 29.69 528.47 569.56Z"
fill-rule="evenodd" fill="RGB(255,191,0)"/>
<path d="M528.47 569.56L536.15 565.81 528.47 30.64 528.47 569.56Z"
fill-rule="evenodd" fill="RGB(255,191,0)"/>
<path d="M536.15 565.81L536.15 34.47 528.47 30.64 536.15 565.81Z"
fill-rule="evenodd" fill="RGB(255,191,0)"/>
<path d="M536.15 565.81L538.21 564.71 536.15 34.47 536.15 565.81Z"
fill-rule="evenodd" fill="RGB(255,191,0)"/>
<path d="M538.21 564.71L538.21 35.5 536.15 34.47 538.21 564.71Z"
fill-rule="evenodd" fill="RGB(255,191,0)"/>
<path d="M538.21 564.71L545.75 560.68 538.21 35.5 538.21 564.71Z"
fill-rule="evenodd" fill="RGB(255,191,0)"/>
<path d="M545.75 560.68L545.75 39.6 538.21 35.5 545.75 560.68Z"
fill-rule="evenodd" fill="RGB(255,191,0)"/>
<path d="M545.75 560.68L547.77 559.5 545.75 39.6 545.75 560.68Z"
fill-rule="evenodd" fill="RGB(255,191,0)"/>
<path d="M547.77 559.5L547.77 40.7 545.75 39.6 547.77 559.5Z"
fill-rule="evenodd" fill="RGB(255,191,0)"/>
<path d="M547.77 559.5L555.15 555.2 547.77 40.7 547.77 559.5Z"
fill-rule="evenodd" fill="RGB(255,191,0)"/>
<path d="M555.15 555.2L555.15 45.08 547.77 40.7 555.15 555.2Z"
fill-rule="evenodd" fill="RGB(255,191,0)"/>
<path d="M555.15 555.2L557.13 553.95 555.15 45.08 555.15 555.2Z"
fill-rule="evenodd" fill="RGB(255,191,0)"/>
<path d="M557.13 553.95L557.13 46.25 555.15 45.08 557.13 553.95Z"
fill-rule="evenodd" fill="RGB(255,191,0)"/>
<path d="M557.13 553.95L564.35 549.38 557.13 46.25 557.13 553.95Z"
fill-rule="evenodd" fill="RGB(255,191,0)"/>
<path d="M564.35 549.38L564.35 50.9 557.13 46.25 564.35 549.38Z"
fill-rule="evenodd" fill="RGB(255,191,0)"/>
<path d="M564.35 549.38L566.28 548.06 564.35 50.9 564.35 549.38Z"
fill-rule="evenodd" fill="RGB(255,191,0)"/>
<path d="M566.28 548.06L566.28 52.14 564.35 50.9 566.28 548.06Z"
fill-rule="evenodd" fill="RGB(255,191,0)"/>
<path d="M566.28 548.06L573.33 543.23 566.28 52.14 566.28 548.06Z"
fill-rule="evenodd" fill="RGB(255,191,0)"/>
<path d="M573.33 543.23L573.33 57.05 566.28 52.14 573.33 543.23Z"
fill-rule="evenodd" fill="RGB(255,191,0)"/>
<path d="M573.33 543.23L575.22 541.84 573.33 57.05 573.33 543.23Z"
fill-rule="evenodd" fill="RGB(255,191,0)"/>
<path d="M575.22 541.84L575.22 58.36 573.33 57.05 575.22 541.84Z"
fill-rule="evenodd" fill="RGB(255,191,0)"/>
<path d="M575.22 541.84L582.08 536.76 575.22 58.36 575.22 541.84Z"
fill-rule="evenodd" fill="RGB(255,191,0)"/>
<path d="M582.08 536.76L582.08 63.52 575.22 58.36 582.08 536.76Z"
fill-rule="evenodd" fill="RGB(255,191,0)"/>
<path d="M582.08 536.76L583.91 535.3 582.08 63.52 582.08 536.76Z"
fill-rule="evenodd" fill="RGB(255,191,0)"/>
<path d="M583.91 535.3L583.91 64.9 582.08 63.52 583.91 535.3Z"
fill-rule="evenodd" fill="RGB(255,191,0)"/>
<path d="M583.91 535.3L590.59 529.97 583.91 64.9 583.91 535.3Z"
fill-rule="evenodd" fill="RGB(255,191,0)"/>
<path d="M590.59 529.97L590.59 70.31 583.91 64.9 590.59 529.97Z"
fill-rule="evenodd" fill="RGB(255,191,0)"/>
<path d="M590.59 529.97L592.37 528.44 590.59 70.31 590.59 529.97Z"
fill-rule="evenodd" fill="RGB(255,191,0)"/>
<path d="M592.37 528.44L592.37 71.75 590.59 70.31 592.37 528.44Z"
fill-rule="evenodd" fill="RGB(255,191,0)"/>
<path d="M592.37 528.44L598.84 522.88 592.37 71.75 592.37 528.44Z"
fill-rule="evenodd" fill="RGB(255,191,0)"/>
<path d="M598.84 522.88L598.84 77.4 592.37 71.75 598.84 522.88Z"
fill-rule="evenodd" fill="RGB(255,191,0)"/>
<path d="M598.84 522.88L600.57 521.29 598.84 77.4 598.84 522.88Z"
fill-rule="evenodd" fill="RGB(255,191,0)"/>
<path d="M600.57 521.29L600.57 78.91 598.84 77.4 600.57 521.29Z"
fill-rule="evenodd" fill="RGB(255,191,0)"/>
<path d="M600.57 521.29L606.83 515.49 600.57 78.91 600.57 521.29Z"
fill-rule="evenodd" fill="RGB(255,191,0)"/>
<path d="M606.83 515.49L606.83 84.79 600.57 78.91 606.83 515.49Z"
fill-rule="evenodd" fill="RGB(255,191,0)"/>
<path d="M606.83 515.49L608.5 513.83 606.83 84.79 606.83 515.49Z"
fill-rule="evenodd" fill="RGB(255,191,0)"/>
<path d="M608.5 513.83L608.5 86.36 606.83 84.79 608.5 513.83Z"
fill-rule="evenodd" fill="RGB(255,191,0)"/>
<path d="M608.5 513.83L614.55 507.82 608.5 86.36 608.5 513.83Z"
fill-rule="evenodd" fill="RGB(255,191,0)"/>
<path d="M614.55 507.82L614.55 92.47 608.5 86.36 614.55 507.82Z"
fill-rule="evenodd" fill="RGB(255,191,0)"/>
<path d="M614.55 507.82L616.16 506.1 614.55 92.47 614.55 507.82Z"
fill-rule="evenodd" fill="RGB(255,191,0)"/>
<path d="M616.16 506.1L616.16 94.1 614.55 92.47 616.16 506.1Z"
fill-rule="evenodd" fill="RGB(255,191,0)"/>
<path d="M616.16 506.1L621.98 499.86 616.16 94.1 616.16 506.1Z"
fill-rule="evenodd" fill="RGB(255,191,0)"/>
<path d="M621.98 499.86L621.98 100.43 616.16 94.1 621.98 499.86Z"
fill-rule="evenodd" fill="RGB(255,191,0)"/>
<path d="M621.98 499.86L623.53 498.08 621.98 100.43 621.98 499.86Z"
fill-rule="evenodd" fill="RGB(255,191,0)"/>
<path d="M623.53 498.08L623.53 102.1 621.98 100.43 623.53 498.08Z"
fill-rule="evenodd" fill="RGB(255,191,0)"/>
<path d="M623.53 498.08L629.12 491.65 623.53 102.1 623.53 498.08Z"
fill-rule="evenodd" fill="RGB(255,191,0)"/>
<path d="M629.12 491.65L629.12 108.64 623.53 102.1 629.12 491.65Z"
fill-rule="evenodd" fill="RGB(255,191,0)"/>
<path d="M629.12 491.65L630.6 489.81 629.12 108.64 629.12 491.65Z"
fill-rule="evenodd" fill="RGB(255,191,0)"/>
<path d="M630.6 489.81L630.6 110.38 629.12 108.64 630.6 489.81Z"
fill-rule="evenodd" fill="RGB(255,191,0)"/>
<path d="M630.6 489.81L635.95 483.17 630.6 110.38 630.6 489.81Z"
fill-rule="evenodd" fill="RGB(255,191,0)"/>
<path d="M635.95 483.17L635.95 117.12 630.6 110.38 635.95 483.17Z"
fill-rule="evenodd" fill="RGB(255,191,0)"/>
<path d="M635.95 483.17L637.36 481.28 635.95 117.12 635.95 483.17Z"
fill-rule="evenodd" fill="RGB(255,191,0)"/>
<path d="M637.36 481.28L637.36 118.9 635.95 117.12 637.36 481.28Z"
fill-rule="evenodd" fill="RGB(255,191,0)"/>
<path d="M637.36 481.28L642.47 474.46 637.36 118.9 637.36 481.28Z"
fill-rule="evenodd" fill="RGB(255,191,0)"/>
<path d="M642.47 474.46L642.47 125.84 637.36 118.9 642.47 474.46Z"
fill-rule="evenodd" fill="RGB(255,191,0)"/>
<path d="M642.47 474.46L643.81 472.51 642.47 125.84 642.47 474.46Z"
fill-rule="evenodd" fill="RGB(255,191,0)"/>
<path d="M643.81 472.51L643.81 127.67 642.47 125.84 643.81 472.51Z"
fill-rule="evenodd" fill="RGB(255,191,0)"/>
<path d="M643.81 472.51L648.66 465.51 643.81 127.67 643.81 472.51Z"
fill-rule="evenodd" fill="RGB(255,191,0)"/>
<path d="M648.66 465.51L648.66 134.79 643.81 127.67 648.66 465.51Z"
fill-rule="evenodd" fill="RGB(255,191,0)"/>
<path d="M648.66 465.51L649.94 463.51 648.66 134.79 648.66 465.51Z"
fill-rule="evenodd" fill="RGB(255,191,0)"/>
<path d="M649.94 463.51L649.94 136.66 648.66 134.79 649.94 463.51Z"
fill-rule="evenodd" fill="RGB(255,191,0)"/>
<path d="M649.94 463.51L654.53 456.34 649.94 136.66 649.94 463.51Z"
fill-rule="evenodd" fill="RGB(255,191,0)"/>
<path d="M654.53 456.34L654.53 143.96 649.94 136.66 654.53 456.34Z"
fill-rule="evenodd" fill="RGB(255,191,0)"/>
<path d="M654.53 456.34L655.73 454.3 654.53 143.96 654.53 456.34Z"
fill-rule="evenodd" fill="RGB(255,191,0)"/>
<path d="M655.73 454.3L655.73 145.88 654.53 143.96 655.73 454.3Z"
fill-rule="evenodd" fill="RGB(255,191,0)"/>
<path d="M655.73 454.3L660.05 446.97 655.73 145.88 655.73 454.3Z"
fill-rule="evenodd" fill="RGB(255,191,0)"/>
<path d="M660.05 446.97L660.05 153.34 655.73 145.88 660.05 446.97Z"
fill-rule="evenodd" fill="RGB(255,191,0)"/>
<path d="M660.05 446.97L661.19 444.88 660.05 153.34 660.05 446.97Z"
fill-rule="evenodd" fill="RGB(255,191,0)"/>
<path d="M661.19 444.88L661.19 155.29 660.05 153.34 661.19 444.88Z"
fill-rule="evenodd" fill="RGB(255,191,0)"/>
<path d="M661.19 444.88L665.24 437.4 661.19 155.29 661.19 444.88Z"
fill-rule="evenodd" fill="RGB(255,191,0)"/>
<path d="M665.24 437.4L665.24 162.91 661.19 155.29 665.24 437.4Z"
fill-rule="evenodd" fill="RGB(255,191,0)"/>
<path d="M665.24 437.4L666.29 435.26 665.24 162.91 665.24 437.4Z"
fill-rule="evenodd" fill="RGB(255,191,0)"/>
<path d="M666.29 435.26L666.29 164.9 665.24 162.91 666.29 435.26Z"
fill-rule="evenodd" fill="RGB(255,191,0)"/>
<path d="M666.29 435.26L670.07 427.65 666.29 164.9 666.29 435.26Z"
fill-rule="evenodd" fill="RGB(255,191,0)"/>
<path d="M670.07 427.65L670.07 172.67 666.29 164.9 670.07 427.65Z"
fill-rule="evenodd" fill="RGB(255,191,0)"/>
<path d="M670.07 427.65L671.05 425.46 670.07 172.67 670.07 427.65Z"
fill-rule="evenodd" fill="RGB(255,191,0)"/>
<path d="M671.05 425.46L671.05 174.69 670.07 172.67 671.05 425.46Z"
fill-rule="evenodd" fill="RGB(255,191,0)"/>
<path d="M671.05 425.46L674.54 417.72 671.05 174.69 671.05 425.46Z"
fill-rule="evenodd" fill="RGB(255,191,0)"/>
<path d="M674.54 417.72L674.54 182.6 671.05 174.69 674.54 417.72Z"
fill-rule="evenodd" fill="RGB(255,191,0)"/>
<path d="M674.54 417.72L675.44 415.5 674.54 182.6 674.54 417.72Z"
fill-rule="evenodd" fill="RGB(255,191,0)"/>
<path d="M675.44 415.5L675.44 184.65 674.54 182.6 675.44 415.5Z"
fill-rule="evenodd" fill="RGB(255,191,0)"/>
<path d="M675.44 415.5L678.64 407.64 675.44 184.65 675.44 415.5Z"
fill-rule="evenodd" fill="RGB(255,191,0)"/>
<path d="M678.64 407.64L678.64 192.69 675.44 184.65 678.64 407.64Z"
fill-rule="evenodd" fill="RGB(255,191,0)"/>
<path d="M678.64 407.64L679.47 405.38 678.64 192.69 678.64 407.64Z"
fill-rule="evenodd" fill="RGB(255,191,0)"/>
<path d="M679.47 405.38L679.47 194.76 678.64 192.69 679.47 405.38Z"
fill-rule="evenodd" fill="RGB(255,191,0)"/>
<path d="M679.47 405.38L682.38 397.42 679.47 194.76 679.47 405.38Z"
fill-rule="evenodd" fill="RGB(255,191,0)"/>
<path d="M682.38 397.42L682.38 202.92 679.47 194.76 682.38 397.42Z"
fill-rule="evenodd" fill="RGB(255,191,0)"/>
<path d="M682.38 397.42L683.12 395.12 682.38 202.92 682.38 397.42Z"
fill-rule="evenodd" fill="RGB(255,191,0)"/>
<path d="M683.12 395.12L683.12 205.01 682.38 202.92 683.12 395.12Z"
fill-rule="evenodd" fill="RGB(255,191,0)"/>
<path d="M683.12 395.12L685.74 387.07 683.12 205.01 683.12 395.12Z"
fill-rule="evenodd" fill="RGB(255,191,0)"/>
<path d="M685.74 387.07L685.74 213.28 683.12 205.01 685.74 387.07Z"
fill-rule="evenodd" fill="RGB(255,191,0)"/>
<path d="M685.74 387.07L686.4 384.73 685.74 213.28 685.74 387.07Z"
fill-rule="evenodd" fill="RGB(255,191,0)"/>
<path d="M686.4 384.73L686.4 215.39 685.74 213.28 686.4 384.73Z"
fill-rule="evenodd" fill="RGB(255,191,0)"/>
<path d="M686.4 384.73L688.72 376.6 686.4 215.39 686.4 384.73Z"
fill-rule="evenodd" fill="RGB(255,191,0)"/>
<path d="M688.72 376.6L688.72 223.76 686.4 215.39 688.72 376.6Z"
fill-rule="evenodd" fill="RGB(255,191,0)"/>
<path d="M688.72 376.6L689.3 374.22 688.72 223.76 688.72 376.6Z"
fill-rule="evenodd" fill="RGB(255,191,0)"/>
<path d="M689.3 374.22L689.3 225.88 688.72 223.76 689.3 374.22Z"
fill-rule="evenodd" fill="RGB(255,191,0)"/>
<path d="M689.3 374.22L691.32 366.03 689.3 225.88 689.3 374.22Z"
fill-rule="evenodd" fill="RGB(255,191,0)"/>
<path d="M691.32 366.03L691.32 234.35 689.3 225.88 691.32 366.03Z"
fill-rule="evenodd" fill="RGB(255,191,0)"/>
<path d="M691.32 366.03L691.82 363.61 691.32 234.35 691.32 366.03Z"
fill-rule="evenodd" fill="RGB(255,191,0)"/>
<path d="M691.82 363.61L691.82 236.47 691.32 234.35 691.82 363.61Z"
fill-rule="evenodd" fill="RGB(255,191,0)"/>
<path d="M691.82 363.61L693.53 355.38 691.82 236.47 691.82 363.61Z"
fill-rule="evenodd" fill="RGB(255,191,0)"/>
<path d="M693.53 355.38L693.53 245.03 691.82 236.47 693.53 355.38Z"
fill-rule="evenodd" fill="RGB(255,191,0)"/>
<path d="M693.53 355.38L693.95 352.9 693.53 245.03 693.53 355.38Z"
fill-rule="evenodd" fill="RGB(255,191,0)"/>
<path d="M693.95 352.9L693.95 247.14 693.53 245.03 693.95 352.9Z"
fill-rule="evenodd" fill="RGB(255,191,0)"/>
<path d="M693.95 352.9L695.35 344.65 693.95 247.14 693.95 352.9Z"
fill-rule="evenodd" fill="RGB(255,191,0)"/>
<path d="M695.35 344.65L695.35 255.8 693.95 247.14 695.35 344.65Z"
fill-rule="evenodd" fill="RGB(255,191,0)"/>
<path d="M695.35 344.65L695.68 342.1 695.35 255.8 695.35 344.65Z"
fill-rule="evenodd" fill="RGB(255,191,0)"/>
<path d="M695.68 342.1L695.68 257.89 695.35 255.8 695.68 342.1Z"
fill-rule="evenodd" fill="RGB(255,191,0)"/>
<path d="M695.68 342.1L696.77 333.86 695.68 257.89 695.68 342.1Z"
fill-rule="evenodd" fill="RGB(255,191,0)"/>
<path d="M696.77 333.86L696.77 266.65 695.68 257.89 696.77 333.86Z"
fill-rule="evenodd" fill="RGB(255,191,0)"/>
<path d="M696.77 333.86L697.03 331.2 696.77 266.65 696.77 333.86Z"
fill-rule="evenodd" fill="RGB(255,191,0)"/>
<path d="M697.03 331.2L697.03 268.69 696.77 266.65 697.03 331.2Z"
fill-rule="evenodd" fill="RGB(255,191,0)"/>
<path d="M697.03 331.2L697.81 323.02 697.03 268.69 697.03 331.2Z"
fill-rule="evenodd" fill="RGB(255,191,0)"/>
<path d="M697.81 323.02L697.81 277.6 697.03 268.69 697.81 323.02Z"
fill-rule="evenodd" fill="RGB(255,191,0)"/>
<path d="M697.81 323.02L697.97 320.14 697.81 277.6 697.81 323.02Z"
fill-rule="evenodd" fill="RGB(255,191,0)"/>
<path d="M697.97 320.14L697.97 279.53 697.81 277.6 697.97 320.14Z"
fill-rule="evenodd" fill="RGB(255,191,0)"/>
<path d="M697.97 320.14L698.44 312.16 697.97 279.53 697.97 320.14Z"
fill-rule="evenodd" fill="RGB(255,191,0)"/>
<path d="M698.44 312.16L698.44 288.74 697.97 279.53 698.44 312.16Z"
fill-rule="evenodd" fill="RGB(255,191,0)"/>
<path d="M698.44 312.16L698.53 308.34 698.44 288.74 698.44 312.16Z"
fill-rule="evenodd" fill="RGB(255,191,0)"/>
<path d="M698.53 308.34L698.53 290.4 698.44 288.74 698.53 308.34Z"
fill-rule="evenodd" fill="RGB(255,191,0)"/>
<path d="M698.53 308.34L698.68 301.28 698.53 290.4 698.53 308.34Z"
fill-rule="evenodd" fill="RGB(255,191,0)"/>
<path d="M247.81 62.56L423.44 62.56M423.44 62.56L463.97 103.09M463.97 103.09L463.97 346.27M463.97 346.27L423.44 386.8M423.44 386.8L180.26 386.8M180.26 386.8L139.73 346.27M139.73 346.27L139.73 170.64"
fill="none" stroke="RGB(255,191,0)" stroke-width="0.5"/>
<path d="M139.73 160.21L463.97 160.21"
fill="none" stroke="RGB(255,191,0)" stroke-width="0.5"/>
<path d="M225.98 386.8L225.98 62.56"
fill="none" stroke="RGB(255,191,0)" stroke-width="0.5"/>
<path d="M247.81 160.21L247.81 160.21"
fill="none" stroke="RGB(255,191,0)" stroke-width="0.5"/>
<path d="M377.71 386.8L377.71 62.56"
fill="none" stroke="RGB(255,191,0)" stroke-width="0.5"/>
<path d="M139.73 163.33L139.73 157.09 463.97 157.09 463.97 163.33 139.73 163.33Z"
fill-rule="evenodd" fill="RGB(255,191,0)"/>
<path d="M380.83 386.8L374.59 386.8 374.59 62.56 380.83 62.56 380.83 386.8Z"
fill-rule="evenodd" fill="RGB(255,191,0)"/>
<path d="M229.1 386.8L222.87 386.8 222.87 62.56 229.1 62.56 229.1 386.8Z"
fill-rule="evenodd" fill="RGB(255,191,0)"/>
<path d="M139.73 289.15L463.97 289.15"
fill="none" stroke="RGB(255,191,0)" stroke-width="0.5"/>
<path d="M139.73 292.27L139.73 286.03 463.97 286.03 463.97 292.27 139.73 292.27Z"
fill-rule="evenodd" fill="RGB(255,191,0)"/>
</svg>
